<svg width="172" height="100" viewBox="0 0 172 100" fill="none" xmlns="http://www.w3.org/2000/svg">
<path d="M109.532 43.3263C107.46 49.0025 105.365 54.6336 103.372 60.2985C103.113 61.0193 102.707 60.7715 102.347 60.7715C98.4276 60.794 94.5196 60.7828 90.6003 60.7828C83.674 60.7828 76.7477 60.7828 69.8102 60.7828C68.2673 60.7828 68.2335 60.7715 68.7403 59.3637C70.5535 54.2732 72.4005 49.1939 74.225 44.1034C74.439 43.5065 74.7768 43.2024 75.4976 43.2024C86.7036 43.2249 97.8982 43.2249 109.104 43.2249C109.228 43.2249 109.352 43.2812 109.521 43.3263H109.532Z" fill="#4A9134"/>
<path d="M17.1253 60.6588C11.7644 60.6588 6.40362 60.625 1.05405 60.6813C-0.128488 60.6926 -0.162275 60.3998 0.20938 59.4087C2.06765 54.4421 3.86961 49.4641 5.63778 44.4637C5.95313 43.5852 6.31352 43.2136 7.32712 43.2249C18.0037 43.2699 28.6691 43.2812 39.3457 43.2249C40.6409 43.2249 40.7084 43.5515 40.3143 44.6326C38.4785 49.5542 36.6653 54.4871 34.9309 59.4538C34.5818 60.4561 34.0862 60.6926 33.0839 60.6813C27.7681 60.625 22.4523 60.6588 17.1478 60.6588H17.1253Z" fill="#EB6038"/>
<path d="M50.1573 64.8594C52.6801 64.8594 55.2028 64.8819 57.7256 64.8481C58.604 64.8369 58.818 64.9945 58.4914 65.9068C54.4933 76.8424 50.529 87.7781 46.5759 98.725C46.3169 99.457 45.9115 99.6485 45.1794 99.6372C40.1339 99.6147 35.0884 99.6147 30.0542 99.6372C29.142 99.6372 28.8379 99.457 29.1983 98.4772C33.1964 87.5415 37.1832 76.6059 41.1363 65.6477C41.3953 64.9157 41.8233 64.8369 42.4652 64.8481C45.033 64.8706 47.6008 64.8481 50.1686 64.8481L50.1573 64.8594Z" fill="#2EA0DA"/>
<path d="M61.1381 34.7556C58.5703 34.7556 56.0137 34.7331 53.4459 34.7669C52.6125 34.7669 52.4436 34.5754 52.7364 33.7645C56.7458 22.8064 60.7214 11.8257 64.6969 0.856244C64.8997 0.281869 65.1699 -0.0109493 65.8457 0.000312983C71.0151 0.0228375 76.1957 0.045362 81.3651 0.000312983C82.694 0.000312983 82.1759 0.68731 81.962 1.27295C78.5945 10.553 75.2159 19.8219 71.8372 29.102C71.2741 30.6562 70.6434 32.1991 70.1479 33.7871C69.9001 34.5867 69.4721 34.7894 68.6838 34.7781C66.161 34.7331 63.6495 34.7669 61.1268 34.7669L61.1381 34.7556Z" fill="#FAB732"/>
<path d="M66.6905 43.2589C65.8233 45.6577 65.0011 47.9102 64.179 50.1739C63.5483 51.897 62.8951 53.6201 62.3095 55.3545C62.0842 56.0302 61.8027 56.3456 61.003 56.3456C55.8787 56.3005 50.7431 56.3005 45.6188 56.3456C44.5827 56.3456 44.6728 56.0077 44.9431 55.2644C46.3171 51.5704 47.646 47.8539 48.9862 44.1486C49.1552 43.6868 49.2115 43.2363 49.921 43.2363C55.4508 43.2589 60.9692 43.2476 66.6792 43.2476L66.6905 43.2589Z" fill="white"/>
<path d="M64.3142 99.6825C66.1387 94.8623 67.9069 90.2222 69.6525 85.5709C70.2044 84.1068 70.7337 82.6202 71.1954 81.1336C71.4207 80.4128 71.7698 80.165 72.5244 80.2101C73.7407 80.2777 74.957 80.2889 76.1734 80.2101C77.1081 80.1538 77.232 80.4466 76.9392 81.2687C76.7703 81.753 76.5 82.2598 76.6351 82.913C78.4145 81.5278 80.3066 80.4691 82.5253 80.0862C83.4262 79.9285 84.3272 79.8947 85.2169 79.9961C88.5506 80.379 90.0259 82.6878 89.1137 86.2692C88.2127 89.7943 86.636 93.0941 85.3971 96.5066C84.2371 99.705 84.1921 99.6825 80.7684 99.6825H77.66C78.8988 96.4165 80.1151 93.2518 81.3089 90.0758C81.5905 89.3212 81.8721 88.5554 82.0635 87.7783C82.5816 85.7061 81.4328 84.5348 79.3268 84.9628C77.1644 85.4132 75.7567 86.7535 74.9796 88.7807C73.7069 92.0805 72.423 95.3916 71.218 98.714C70.9364 99.4798 70.576 99.7276 69.7764 99.6938C68.0307 99.6262 66.2738 99.6712 64.3142 99.6712V99.6825Z" fill="white"/>
<path d="M133.904 85.3346C133.87 85.2557 133.825 85.2107 133.836 85.1656C134.05 80.9874 133.115 81.7757 137.26 80.6382C139.906 79.9062 142.654 79.6809 145.402 80.199C148.758 80.8297 150.245 83.0258 149.389 86.382C148.544 89.6931 147.024 92.7564 145.92 95.9887C145.661 96.7545 145.312 97.4978 145.188 98.2862C145.008 99.4349 144.468 99.8516 143.319 99.7165C142.384 99.6038 141.427 99.7052 140.492 99.6939C139.704 99.6939 138.78 100.021 138.994 98.5227C139.107 97.6893 138.408 98.1735 138.071 98.365C136.246 99.4236 134.275 99.9868 132.169 99.953C128.047 99.8967 126.268 96.9572 128.149 93.2745C129.984 89.6705 133.284 88.1614 136.978 87.2942C138.555 86.9226 140.165 86.7536 141.787 86.7198C142.271 86.7198 142.925 86.9563 143.048 86.1117C143.172 85.2557 142.823 84.7039 142.035 84.4449C140.481 83.9381 138.915 84.1408 137.372 84.4449C136.201 84.6701 135.052 85.0418 133.904 85.3458V85.3346ZM141.483 90.5152C139.749 90.4589 138.082 90.6616 136.505 91.3711C135.672 91.7428 134.996 92.3172 134.579 93.1731C133.847 94.6822 134.433 95.6283 136.1 95.6508C138.791 95.6958 140.683 93.9052 141.472 90.5152H141.483Z" fill="white"/>
<path d="M115.771 94.6705C115.569 95.6165 115.298 96.3937 115.253 97.1933C115.174 98.7475 114.431 99.4457 112.899 99.6259C110.523 99.9187 108.158 100.155 105.782 99.6935C101.84 98.9164 99.8915 95.9544 100.77 92.0577C102.133 86.0436 107.662 81.1446 114.059 80.2211C116.357 79.8945 118.621 79.8832 120.896 80.4013C121.65 80.5702 121.977 80.8067 121.402 81.5162C121.324 81.6176 121.245 81.7415 121.188 81.8541C120.197 84.039 119.116 85.3341 116.12 84.7597C112.348 84.039 108.789 87.046 107.865 90.7963C107.28 93.1839 108.473 94.8845 110.951 95.0872C111.751 95.1548 112.573 95.1323 113.384 95.0647C114.127 94.9971 114.87 94.8282 115.771 94.6705Z" fill="white"/>
<path d="M165.494 94.6031C165.202 96.0334 164.897 97.2835 164.695 98.5562C164.605 99.0967 164.256 99.2094 163.884 99.2995C160.877 99.9977 157.847 100.358 154.818 99.4909C151.259 98.4773 149.671 95.7631 150.459 92.1479C151.777 86.1001 157.374 81.1335 163.828 80.2212C166.125 79.8946 168.389 79.9059 170.664 80.4127C171.542 80.6041 171.599 80.9195 171.114 81.5614C171.002 81.7078 170.912 81.8542 170.833 82.0232C169.898 84.1855 168.76 85.278 165.945 84.7599C162.116 84.0504 158.501 87.0349 157.577 90.8528C157.014 93.1841 158.185 94.8621 160.573 95.0986C162.149 95.2563 163.715 95.1212 165.483 94.6144L165.494 94.6031Z" fill="white"/>
<path d="M67.6928 80.2328C65.2715 86.6185 62.9177 92.8127 60.5751 99.007C60.4062 99.4575 60.1809 99.7165 59.6178 99.7052C57.7258 99.6602 55.845 99.6827 53.7727 99.6827C54.6399 97.4077 55.4508 95.2454 56.2729 93.0943C57.7933 89.1187 59.325 85.1431 60.8004 81.1563C61.0594 80.458 61.3635 80.1878 62.1406 80.2103C63.9313 80.2778 65.7332 80.2328 67.6816 80.2328H67.6928Z" fill="white"/>
<path d="M88.3589 99.6823C90.3636 94.4003 92.3007 89.2985 94.249 84.1967C94.7446 82.9016 94.936 81.1785 95.8821 80.4577C96.8957 79.6806 98.6413 80.2775 100.072 80.2324C100.747 80.2099 101.423 80.2324 102.268 80.2324C101.975 81.0095 101.716 81.6965 101.457 82.3835C99.3846 87.8232 97.3011 93.2629 95.2626 98.7138C94.9811 99.4684 94.632 99.7274 93.8323 99.7049C92.0867 99.6373 90.3298 99.6823 88.3589 99.6823Z" fill="white"/>
<path d="M120.276 99.953C118.159 99.953 117.145 98.5902 117.72 96.5743C118.384 94.243 120.885 92.4523 123.317 92.5537C125.243 92.6325 126.155 93.8488 125.716 95.7183C125.164 98.0609 122.72 99.9642 120.288 99.953H120.276Z" fill="white"/>
<path d="M65.3728 77.7549C63.2892 77.7549 62.3883 76.3246 63.2442 74.41C64.0776 72.5292 66.285 71.3129 68.3009 71.6057C69.7876 71.8197 70.4633 72.8107 70.1367 74.2861C69.7087 76.1894 67.5464 77.7661 65.384 77.7549H65.3728Z" fill="white"/>
<path d="M102.268 71.5833C104.498 71.5833 105.433 73.1037 104.43 75.0858C103.518 76.8878 101.097 78.0928 99.2383 77.6649C97.7968 77.3383 97.2336 76.4035 97.6166 74.9845C98.1572 73.0248 100.106 71.5833 102.257 71.5833H102.268Z" fill="white"/>
</svg>
