<svg width="108" height="108" viewBox="0 0 108 108" fill="none" xmlns="http://www.w3.org/2000/svg">
<path d="M53.5 107.125C46.25 107.125 39.4167 105.75 33 103C26.5833 100.25 21 96.5 16.25 91.75C11.5 87 7.75 81.4167 5 75C2.25 68.5833 0.875 61.75 0.875 54.5C0.875 47.1667 2.25 40.2292 5 33.6875C7.75 27.1458 11.5417 21.4375 16.375 16.5625C21.2083 11.6875 26.8542 7.83333 33.3125 5C39.7708 2.16667 46.6667 0.75 54 0.75C61.3333 0.75 68.2292 2.16667 74.6875 5C81.1458 7.83333 86.7917 11.6875 91.625 16.5625C96.4583 21.4375 100.271 27.1458 103.062 33.6875C105.854 40.2292 107.25 47.1667 107.25 54.5V92.625C107.25 96.625 105.812 100.042 102.938 102.875C100.062 105.708 96.625 107.125 92.625 107.125H53.5ZM53.5 94.75C64.8333 94.75 74.5625 90.8542 82.6875 83.0625C90.8125 75.2708 94.875 65.75 94.875 54.5C94.875 42.9167 90.9167 33.0417 83 24.875C75.0833 16.7083 65.4167 12.625 54 12.625C42.4167 12.625 32.625 16.7083 24.625 24.875C16.625 33.0417 12.625 42.9167 12.625 54.5C12.625 56.25 12.7917 57.9583 13.125 59.625C13.4583 61.2917 13.875 62.9167 14.375 64.5L31.25 47.625L47.75 61.625L63.625 45.625H53.75V35.25H81.375V62.75H71V53L48.25 75.625L31.625 61.625L18.25 75C21.8333 81 26.7292 85.7917 32.9375 89.375C39.1458 92.9583 46 94.75 53.5 94.75ZM94 99C95.5833 99 96.8542 98.4792 97.8125 97.4375C98.7708 96.3958 99.25 95.1667 99.25 93.75C99.25 92.25 98.7083 91.0417 97.625 90.125C96.5417 89.2083 95.375 88.75 94.125 88.75C92.7917 88.75 91.5833 89.2083 90.5 90.125C89.4167 91.0417 88.875 92.2917 88.875 93.875C88.875 95.2083 89.4167 96.3958 90.5 97.4375C91.5833 98.4792 92.75 99 94 99Z" fill="#4A9016"/>
</svg>
