<svg width="14" height="16" viewBox="0 0 14 16" fill="none" xmlns="http://www.w3.org/2000/svg">
<path d="M3.74999 9.45801C3.56933 9.45801 3.41666 9.39201 3.29199 9.26001C3.16666 9.12801 3.10399 8.97868 3.10399 8.81201C3.10399 8.63201 3.16666 8.47601 3.29199 8.34401C3.41666 8.21201 3.56933 8.14601 3.74999 8.14601C3.93066 8.14601 4.08333 8.20834 4.20799 8.33301C4.33333 8.45835 4.39599 8.61134 4.39599 8.79201C4.39599 8.97201 4.33333 9.12801 4.20799 9.26001C4.08333 9.39201 3.93066 9.45801 3.74999 9.45801ZM6.99999 9.45801C6.81933 9.45801 6.66666 9.39201 6.54199 9.26001C6.41666 9.12801 6.35399 8.97868 6.35399 8.81201C6.35399 8.63201 6.41666 8.47601 6.54199 8.34401C6.66666 8.21201 6.81933 8.14601 6.99999 8.14601C7.18066 8.14601 7.33333 8.20834 7.45799 8.33301C7.58333 8.45835 7.64599 8.61134 7.64599 8.79201C7.64599 8.97201 7.58333 9.12801 7.45799 9.26001C7.33333 9.39201 7.18066 9.45801 6.99999 9.45801ZM10.25 9.45801C10.0693 9.45801 9.91666 9.39201 9.79199 9.26001C9.66666 9.12801 9.60399 8.97868 9.60399 8.81201C9.60399 8.63201 9.66666 8.47601 9.79199 8.34401C9.91666 8.21201 10.0693 8.14601 10.25 8.14601C10.4307 8.14601 10.5833 8.20834 10.708 8.33301C10.8333 8.45835 10.896 8.61134 10.896 8.79201C10.896 8.97201 10.8333 9.12801 10.708 9.26001C10.5833 9.39201 10.4307 9.45801 10.25 9.45801ZM1.74999 15.583C1.37533 15.583 1.05933 15.4513 0.801992 15.188C0.545326 14.924 0.416992 14.6113 0.416992 14.25V3.75001C0.416992 3.38868 0.545326 3.07635 0.801992 2.81301C1.05933 2.54901 1.37533 2.41701 1.74999 2.41701H3.58299V0.312012H4.68799V2.41701H9.33299V0.312012H10.417V2.41701H12.25C12.6247 2.41701 12.9407 2.54901 13.198 2.81301C13.4547 3.07635 13.583 3.38868 13.583 3.75001V14.25C13.583 14.6113 13.4547 14.924 13.198 15.188C12.9407 15.4513 12.6247 15.583 12.25 15.583H1.74999ZM1.74999 14.5H12.25C12.3053 14.5 12.361 14.4723 12.417 14.417C12.4723 14.361 12.5 14.3053 12.5 14.25V7.25001H1.49999V14.25C1.49999 14.3053 1.52766 14.361 1.58299 14.417C1.63899 14.4723 1.69466 14.5 1.74999 14.5ZM1.49999 6.16701H12.5V3.75001C12.5 3.69468 12.4723 3.63901 12.417 3.58301C12.361 3.52768 12.3053 3.50001 12.25 3.50001H1.74999C1.69466 3.50001 1.63899 3.52768 1.58299 3.58301C1.52766 3.63901 1.49999 3.69468 1.49999 3.75001V6.16701Z" fill="#FDB62A"/>
</svg>
