<svg width="12" height="14" viewBox="0 0 12 14" fill="none" xmlns="http://www.w3.org/2000/svg">
<path d="M3.0749 8.31221C2.9123 8.31221 2.7749 8.25281 2.6627 8.13401C2.5499 8.01521 2.4935 7.88081 2.4935 7.73081C2.4935 7.56881 2.5499 7.42841 2.6627 7.30961C2.7749 7.19081 2.9123 7.13141 3.0749 7.13141C3.2375 7.13141 3.3749 7.18751 3.4871 7.29971C3.5999 7.41251 3.6563 7.55021 3.6563 7.71281C3.6563 7.87481 3.5999 8.01521 3.4871 8.13401C3.3749 8.25281 3.2375 8.31221 3.0749 8.31221ZM5.9999 8.31221C5.8373 8.31221 5.6999 8.25281 5.5877 8.13401C5.4749 8.01521 5.4185 7.88081 5.4185 7.73081C5.4185 7.56881 5.4749 7.42841 5.5877 7.30961C5.6999 7.19081 5.8373 7.13141 5.9999 7.13141C6.1625 7.13141 6.2999 7.18751 6.4121 7.29971C6.5249 7.41251 6.5813 7.55021 6.5813 7.71281C6.5813 7.87481 6.5249 8.01521 6.4121 8.13401C6.2999 8.25281 6.1625 8.31221 5.9999 8.31221ZM8.9249 8.31221C8.7623 8.31221 8.6249 8.25281 8.5127 8.13401C8.3999 8.01521 8.3435 7.88081 8.3435 7.73081C8.3435 7.56881 8.3999 7.42841 8.5127 7.30961C8.6249 7.19081 8.7623 7.13141 8.9249 7.13141C9.0875 7.13141 9.2249 7.18751 9.3371 7.29971C9.4499 7.41251 9.5063 7.55021 9.5063 7.71281C9.5063 7.87481 9.4499 8.01521 9.3371 8.13401C9.2249 8.25281 9.0875 8.31221 8.9249 8.31221ZM1.2749 13.8247C0.937695 13.8247 0.653295 13.7062 0.421695 13.4692C0.190695 13.2316 0.0751953 12.9502 0.0751953 12.625V3.17501C0.0751953 2.84981 0.190695 2.56871 0.421695 2.33171C0.653295 2.09411 0.937695 1.97531 1.2749 1.97531H2.9246V0.0808105H3.9191V1.97531H8.0996V0.0808105H9.0752V1.97531H10.7249C11.0621 1.97531 11.3465 2.09411 11.5781 2.33171C11.8091 2.56871 11.9246 2.84981 11.9246 3.17501V12.625C11.9246 12.9502 11.8091 13.2316 11.5781 13.4692C11.3465 13.7062 11.0621 13.8247 10.7249 13.8247H1.2749ZM1.2749 12.85H10.7249C10.7747 12.85 10.8248 12.8251 10.8752 12.7753C10.925 12.7249 10.9499 12.6748 10.9499 12.625V6.32501H1.0499V12.625C1.0499 12.6748 1.0748 12.7249 1.1246 12.7753C1.175 12.8251 1.2251 12.85 1.2749 12.85ZM1.0499 5.35031H10.9499V3.17501C10.9499 3.12521 10.925 3.07511 10.8752 3.02471C10.8248 2.97491 10.7747 2.95001 10.7249 2.95001H1.2749C1.2251 2.95001 1.175 2.97491 1.1246 3.02471C1.0748 3.07511 1.0499 3.12521 1.0499 3.17501V5.35031Z" fill="#279FDB"/>
</svg>
