<svg width="98" height="97" viewBox="0 0 98 97" fill="none" xmlns="http://www.w3.org/2000/svg">
<path d="M83.0312 31.552C84.7881 31.552 86.2395 30.96 87.3853 29.776C88.5312 28.5919 89.1041 27.1596 89.1041 25.4791C89.1041 23.7221 88.5312 22.2517 87.3853 21.0676C86.2395 19.8836 84.7881 19.2916 83.0312 19.2916C81.2742 19.2916 79.8228 19.8836 78.677 21.0676C77.5312 22.2517 76.9583 23.7221 76.9583 25.4791C76.9583 27.1596 77.5312 28.5919 78.677 29.776C79.8228 30.96 81.2742 31.552 83.0312 31.552ZM83.0312 40.1458C78.9062 40.1458 75.4114 38.7326 72.5468 35.9062C69.6822 33.0798 68.2499 29.5659 68.2499 25.3645C68.2499 21.3159 69.6822 17.8593 72.5468 14.9947C75.4114 12.1301 78.9062 10.6978 83.0312 10.6978C87.1562 10.6978 90.6319 12.1301 93.4583 14.9947C96.2846 17.8593 97.6978 21.3159 97.6978 25.3645C97.6978 29.5659 96.2655 33.0798 93.401 35.9062C90.5364 38.7326 87.0798 40.1458 83.0312 40.1458ZM48.9999 25.7083C51.2916 25.7083 53.2586 24.8871 54.901 23.2447C56.5433 21.6023 57.3645 19.5971 57.3645 17.2291C57.3645 14.9374 56.5433 12.9704 54.901 11.328C53.2586 9.68568 51.2916 8.8645 48.9999 8.8645C46.6319 8.8645 44.6458 9.68568 43.0416 11.328C41.4374 12.9704 40.6353 14.9756 40.6353 17.3437C40.6353 19.6353 41.4565 21.6023 43.0989 23.2447C44.7412 24.8871 46.7083 25.7083 48.9999 25.7083ZM48.9999 34.302C44.2638 34.302 40.2534 32.6596 36.9687 29.3749C33.6839 26.0902 32.0416 22.0798 32.0416 17.3437C32.0416 12.6076 33.6839 8.57804 36.9687 5.25513C40.2534 1.93221 44.2638 0.270752 48.9999 0.270752C53.736 0.270752 57.7464 1.93221 61.0312 5.25513C64.3159 8.57804 65.9583 12.6076 65.9583 17.3437C65.9583 22.0798 64.3159 26.0902 61.0312 29.3749C57.7464 32.6596 53.736 34.302 48.9999 34.302ZM29.0624 56.302C29.0624 58.8228 30.4183 61.7829 33.1301 65.1822C35.8419 68.5815 41.1319 73.8715 48.9999 81.052C56.7916 73.9478 62.0624 68.7152 64.8124 65.3541C67.5624 61.993 68.9374 58.9374 68.9374 56.1874C68.9374 54.0485 68.2117 52.2152 66.7603 50.6874C65.309 49.1596 63.5138 48.3958 61.3749 48.3958C60.0763 48.3958 58.8923 48.7204 57.8228 49.3697C56.7534 50.019 55.7221 50.7256 54.7291 51.4895L48.3124 57.1041H49.6874L43.2708 51.4895C42.2777 50.7256 41.2464 50.019 40.177 49.3697C39.1076 48.7204 37.9235 48.3958 36.6249 48.3958C34.486 48.3958 32.6909 49.1596 31.2395 50.6874C29.7881 52.2152 29.0624 54.0867 29.0624 56.302ZM20.3541 56.1874C20.3541 51.9096 22.0537 48.0902 25.453 44.7291C28.8524 41.368 32.5763 39.6874 36.6249 39.6874C38.8402 39.6874 41.0364 40.1839 43.2135 41.177C45.3905 42.1701 47.3194 43.4687 48.9999 45.0728C50.6041 43.4687 52.4947 42.1701 54.6718 41.177C56.8489 40.1839 59.0833 39.6874 61.3749 39.6874C65.3471 39.6874 69.052 41.368 72.4895 44.7291C75.927 48.0902 77.6458 51.9096 77.6458 56.1874C77.6458 60.4652 76.118 64.6666 73.0624 68.7916C70.0069 72.9166 63.9339 79.1423 54.8437 87.4687L48.9999 92.7395L43.2708 87.4687C33.8749 78.9131 27.7065 72.6301 24.7655 68.6197C21.8246 64.6093 20.3541 60.4652 20.3541 56.1874ZM14.9687 31.552C16.7256 31.552 18.177 30.96 19.3228 29.776C20.4687 28.5919 21.0416 27.1596 21.0416 25.4791C21.0416 23.7221 20.4687 22.2517 19.3228 21.0676C18.177 19.8836 16.7256 19.2916 14.9687 19.2916C13.2117 19.2916 11.7603 19.8836 10.6145 21.0676C9.46867 22.2517 8.89575 23.7221 8.89575 25.4791C8.89575 27.1596 9.46867 28.5919 10.6145 29.776C11.7603 30.96 13.2117 31.552 14.9687 31.552ZM49.3437 96.9791V88.2708H87.2708V52.9791H71.9166V44.2708H86.8124C89.3333 44.2708 91.4912 45.1683 93.2864 46.9635C95.0815 48.7586 95.9791 50.9166 95.9791 53.4374V96.9791H49.3437ZM10.7291 88.2708H49.3437V96.9791H2.02075V53.4374C2.02075 50.9166 2.89922 48.7586 4.65617 46.9635C6.41311 45.1683 8.5902 44.2708 11.1874 44.2708H25.9687V52.9791H10.7291V88.2708ZM14.9687 40.1458C10.8437 40.1458 7.36797 38.7326 4.54159 35.9062C1.7152 33.0798 0.302002 29.5659 0.302002 25.3645C0.302002 21.3159 1.7152 17.8593 4.54159 14.9947C7.36797 12.1301 10.8437 10.6978 14.9687 10.6978C19.0937 10.6978 22.5885 12.1301 25.453 14.9947C28.3176 17.8593 29.7499 21.3159 29.7499 25.3645C29.7499 29.5659 28.3176 33.0798 25.453 35.9062C22.5885 38.7326 19.0937 40.1458 14.9687 40.1458Z" fill="#F15E33"/>
</svg>
