<svg width="31" height="29" viewBox="0 0 31 29" fill="none" xmlns="http://www.w3.org/2000/svg">
<path d="M11.8002 28.1008C10.7335 28.1008 9.77242 27.8117 8.91695 27.2336C8.06149 26.6554 7.46682 25.8885 7.13295 24.9328C6.86629 25.2442 6.52175 25.4944 6.09935 25.6832C5.67802 25.872 5.21189 25.9664 4.70095 25.9664C3.67802 25.9664 2.80015 25.6053 2.06735 24.8832C1.33349 24.161 0.966553 23.2997 0.966553 22.2992C0.966553 21.4992 1.21082 20.7664 1.69935 20.1008C2.18895 19.433 2.83375 18.9882 3.63375 18.7664C3.25615 18.344 2.95589 17.872 2.73295 17.3504C2.51109 16.8277 2.40015 16.2997 2.40015 15.7664C2.40015 14.7445 2.65029 13.8389 3.15055 13.0496C3.65082 12.2613 4.35642 11.656 5.26735 11.2336C5.33349 11.6336 5.40015 11.9669 5.46735 12.2336C5.53349 12.5002 5.62202 12.7226 5.73295 12.9008C5.22202 13.2112 4.82789 13.6 4.55055 14.0672C4.27215 14.5333 4.13295 15.0442 4.13295 15.6C4.13295 16.5994 4.51642 17.4272 5.28335 18.0832C6.05029 18.7392 7.13349 19.1338 8.53295 19.2672L9.13295 20.3664C8.88869 20.9221 8.71109 21.4112 8.60015 21.8336C8.48922 22.256 8.43375 22.6336 8.43375 22.9664C8.43375 23.9221 8.75055 24.728 9.38415 25.384C10.0167 26.0389 10.8108 26.3664 11.7666 26.3664C12.4108 26.3664 12.9943 26.1829 13.517 25.816C14.0396 25.4501 14.5175 24.8725 14.9506 24.0832C15.3836 23.2949 15.7836 22.2618 16.1506 20.984C16.5175 19.7061 16.8786 18.1445 17.2338 16.2992L18.8994 16.7328C18.5666 18.7328 18.1778 20.4549 17.733 21.8992C17.2892 23.3445 16.773 24.5226 16.1842 25.4336C15.5943 26.3445 14.9383 27.0165 14.2162 27.4496C13.494 27.8837 12.6887 28.1008 11.8002 28.1008ZM4.66735 24.2C5.20069 24.2 5.65615 24.0053 6.03375 23.616C6.41135 23.2277 6.60015 22.7781 6.60015 22.2672C6.60015 21.7338 6.41135 21.2837 6.03375 20.9168C5.65615 20.5498 5.20069 20.3664 4.66735 20.3664C4.13402 20.3664 3.67802 20.5498 3.29935 20.9168C2.92175 21.2837 2.73295 21.7338 2.73295 22.2672C2.73295 22.7781 2.92175 23.2277 3.29935 23.616C3.67802 24.0053 4.13402 24.2 4.66735 24.2ZM13.6338 19.6336C12.3442 18.5445 11.261 17.561 10.3842 16.6832C9.50629 15.8053 8.80069 15 8.26735 14.2672C7.73402 13.5333 7.34522 12.8389 7.10095 12.184C6.85562 11.528 6.73295 10.889 6.73295 10.2672C6.73295 8.88902 7.19429 7.71089 8.11695 6.73276C9.03962 5.75569 10.1564 5.26716 11.4674 5.26716C11.6444 5.26716 11.8167 5.27836 11.9842 5.30076C12.1506 5.32209 12.3116 5.35516 12.4674 5.39996C12.4226 5.24422 12.389 5.09969 12.3666 4.96636C12.3442 4.83302 12.333 4.68849 12.333 4.53276C12.333 3.51089 12.6887 2.65009 13.4002 1.95036C14.1116 1.25062 14.9783 0.900757 16.0002 0.900757C17.0444 0.900757 17.9164 1.25062 18.6162 1.95036C19.317 2.65009 19.6674 3.52209 19.6674 4.56636C19.6674 4.72209 19.6562 4.87196 19.6338 5.01596C19.6114 5.16102 19.5778 5.28902 19.533 5.39996C19.6887 5.35516 19.8332 5.32209 19.9666 5.30076C20.0999 5.27836 20.2668 5.26716 20.4674 5.26716C21.5554 5.26716 22.533 5.60582 23.4002 6.28316C24.2674 6.96156 24.8343 7.83409 25.101 8.90076C24.7671 8.83356 24.4556 8.79996 24.1666 8.79996C23.8775 8.79996 23.5778 8.83356 23.2674 8.90076C22.9783 8.30022 22.5559 7.83302 22.0002 7.49916C21.4444 7.16636 20.8444 6.99996 20.2002 6.99996C19.622 6.99996 19.0663 7.16636 18.533 7.49916C17.9996 7.83302 17.3666 8.46662 16.6338 9.39996H15.4002C14.7559 8.53382 14.1506 7.91729 13.5842 7.55036C13.0167 7.18342 12.3996 6.99996 11.733 6.99996C10.7996 6.99996 10.022 7.31676 9.40015 7.95036C8.77829 8.58396 8.46735 9.37809 8.46735 10.3328C8.46735 10.7776 8.56175 11.2336 8.75055 11.7008C8.93935 12.1669 9.27269 12.7056 9.75055 13.3168C10.2284 13.928 10.878 14.6389 11.6994 15.4496C12.5218 16.2613 13.5666 17.2448 14.8338 18.4L13.6338 19.6336ZM16.0002 6.50076C16.5335 6.50076 16.989 6.31142 17.3666 5.93276C17.7442 5.55516 17.933 5.09969 17.933 4.56636C17.933 4.03302 17.7442 3.57756 17.3666 3.19996C16.989 2.82236 16.5335 2.63356 16.0002 2.63356C15.4668 2.63356 15.0114 2.82236 14.6338 3.19996C14.2562 3.57756 14.0674 4.03302 14.0674 4.56636C14.0674 5.09969 14.2562 5.55516 14.6338 5.93276C15.0114 6.31142 15.4668 6.50076 16.0002 6.50076ZM20.4994 28.1664C19.9447 28.1664 19.3836 28.072 18.8162 27.8832C18.2498 27.6944 17.7442 27.4224 17.2994 27.0672C17.5884 26.6224 17.7943 26.2944 17.917 26.0832C18.0386 25.872 18.1218 25.6554 18.1666 25.4336C18.478 25.7226 18.8391 25.9504 19.2498 26.1168C19.6615 26.2832 20.078 26.3664 20.4994 26.3664C21.3666 26.3664 22.0892 26.0666 22.6674 25.4672C23.2444 24.8666 23.533 24.0997 23.533 23.1664C23.533 22.8112 23.4775 22.4224 23.3666 22C23.2556 21.5776 23.078 21.0442 22.8338 20.4L23.4338 19.3328C24.7895 19.2218 25.8615 18.8218 26.6498 18.1328C27.4391 17.4437 27.8338 16.5994 27.8338 15.6C27.8338 14.6005 27.478 13.817 26.7666 13.2496C26.0551 12.6832 25.0551 12.4 23.7666 12.4C22.989 12.4 22.0002 12.5445 20.8002 12.8336C19.6002 13.1226 17.9778 13.6336 15.933 14.3664L15.4674 12.6672C17.5111 11.9109 19.15 11.3776 20.3842 11.0672C21.6172 10.7557 22.7116 10.6 23.6674 10.6C25.3783 10.6 26.7895 11.072 27.901 12.016C29.0114 12.961 29.5666 14.1557 29.5666 15.6C29.5666 16.2218 29.461 16.7994 29.2498 17.3328C29.0386 17.8661 28.733 18.3552 28.333 18.8C29.133 18.9994 29.7778 19.416 30.2674 20.0496C30.7559 20.6832 31.0002 21.4224 31.0002 22.2672C31.0002 23.289 30.6391 24.1669 29.917 24.9008C29.1948 25.6336 28.3335 26 27.333 26C26.8444 26 26.389 25.9109 25.9666 25.7328C25.5442 25.5557 25.1666 25.3002 24.8338 24.9664C24.6556 25.9221 24.1666 26.6944 23.3666 27.2832C22.5666 27.872 21.6108 28.1664 20.4994 28.1664ZM27.333 24.2C27.8663 24.2 28.3223 24.0053 28.701 23.616C29.0786 23.2277 29.2674 22.7781 29.2674 22.2672C29.2674 21.7338 29.0786 21.2837 28.701 20.9168C28.3223 20.5498 27.8663 20.3664 27.333 20.3664C26.7996 20.3664 26.3442 20.5498 25.9666 20.9168C25.589 21.2837 25.4002 21.7338 25.4002 22.2672C25.4002 22.7781 25.589 23.2277 25.9666 23.616C26.3442 24.0053 26.7996 24.2 27.333 24.2Z" fill="#FDB62A"/>
</svg>
