<svg width="110" height="98" viewBox="0 0 110 98" fill="none" xmlns="http://www.w3.org/2000/svg">
<path d="M12.625 97.125C9.375 97.125 6.60417 95.9792 4.3125 93.6875C2.02083 91.3958 0.875 88.625 0.875 85.375V12.625C0.875 9.375 2.02083 6.58333 4.3125 4.25C6.60417 1.91667 9.375 0.75 12.625 0.75H97.375C100.625 0.75 103.417 1.91667 105.75 4.25C108.083 6.58333 109.25 9.375 109.25 12.625V85.375C109.25 88.625 108.083 91.3958 105.75 93.6875C103.417 95.9792 100.625 97.125 97.375 97.125H12.625ZM12.625 85.375H97.375V12.625H12.625V85.375ZM23.5 74H47.75V64H23.5V74ZM67.75 64L91.75 40L84.625 32.875L67.75 49.875L60.625 42.75L53.625 49.875L67.75 64ZM23.5 54H47.75V44H23.5V54ZM23.5 34H47.75V24H23.5V34Z" fill="#279FDB"/>
</svg>
