<svg width="22" height="26" viewBox="0 0 22 26" fill="none" xmlns="http://www.w3.org/2000/svg">
<path d="M11.0001 25.6672C9.51102 24.4 7.87209 23.3445 6.08329 22.5008C4.29449 21.656 2.42249 21.2 0.467285 21.1328V9.43361C2.46729 9.49975 4.35049 9.97761 6.11689 10.8672C7.88329 11.7557 9.51102 12.8667 11.0001 14.2C12.4892 12.8667 14.1169 11.7557 15.8833 10.8672C17.6497 9.97761 19.5329 9.49975 21.5329 9.43361V21.1328C19.5553 21.2 17.6774 21.656 15.8993 22.5008C14.1222 23.3445 12.4892 24.4 11.0001 25.6672ZM11.0001 23.4C12.311 22.4443 13.6998 21.6165 15.1665 20.9168C16.6332 20.2171 18.1777 19.7557 19.8001 19.5328V11.4C17.9996 11.7115 16.383 12.3616 14.9505 13.3504C13.5169 14.3392 12.2001 15.4224 11.0001 16.6C9.80009 15.4224 8.48329 14.3392 7.04969 13.3504C5.61715 12.3616 4.00062 11.7115 2.20009 11.4V19.5328C3.82249 19.7333 5.36702 20.1893 6.83368 20.9008C8.30035 21.6112 9.68915 22.4443 11.0001 23.4ZM11.0001 10.3328C9.57822 10.3328 8.37289 9.83841 7.38409 8.84961C6.39422 7.86081 5.89928 6.65548 5.89928 5.23361C5.89928 3.81068 6.39422 2.60481 7.38409 1.61601C8.37289 0.627213 9.57822 0.132812 11.0001 0.132812C12.422 0.132812 13.6273 0.627213 14.6161 1.61601C15.606 2.60481 16.1009 3.81068 16.1009 5.23361C16.1009 6.65548 15.606 7.86081 14.6161 8.84961C13.6273 9.83841 12.422 10.3328 11.0001 10.3328ZM11.0001 8.60001C11.9334 8.60001 12.7281 8.26668 13.3841 7.60001C14.039 6.93335 14.3665 6.14455 14.3665 5.23361C14.3665 4.30028 14.0332 3.50561 13.3665 2.84961C12.6998 2.19468 11.911 1.86721 11.0001 1.86721C10.0668 1.86721 9.27209 2.19468 8.61609 2.84961C7.96115 3.50561 7.63369 4.30028 7.63369 5.23361C7.63369 6.14455 7.96702 6.93335 8.63369 7.60001C9.30035 8.26668 10.0892 8.60001 11.0001 8.60001Z" fill="#F15E33"/>
</svg>
