<svg width="14" height="14" viewBox="0 0 14 14" fill="none" xmlns="http://www.w3.org/2000/svg">
<path d="M4.91671 13.3832L3.75031 11.4336L1.55031 10.9504L1.75031 8.68322L0.249512 7.00002L1.75031 5.31682L1.55031 3.04962L3.75031 2.56642L4.91671 0.616821L6.99991 1.51682L9.08311 0.616821L10.2495 2.56642L12.4495 3.04962L12.2495 5.31682L13.7503 7.00002L12.2495 8.68322L12.4495 10.9504L10.2495 11.4336L9.08311 13.3832L6.99991 12.4832L4.91671 13.3832ZM5.26631 12.2832L6.99991 11.5664L8.71671 12.2832L9.69991 10.6664L11.5335 10.2664L11.3663 8.40002L12.5999 7.00002L11.3663 5.61682L11.5335 3.75042L9.69991 3.33362L8.73351 1.71682L6.99991 2.43362L5.28311 1.71682L4.29991 3.33362L2.46631 3.73362L2.63351 5.61682L1.39991 7.00002L2.64951 8.40002L2.46631 10.2664L4.29991 10.6832L5.26631 12.2832ZM6.15031 9.16642L9.88311 5.44962L9.26631 4.84962L6.15031 7.95042L4.73351 6.53362L4.11671 7.15042L6.15031 9.16642Z" fill="white"/>
</svg>
