<svg width="28" height="26" viewBox="0 0 28 26" fill="none" xmlns="http://www.w3.org/2000/svg">
<path d="M9.83367 25.7664L7.50087 21.8672L3.10087 20.9008L3.50087 16.3664L0.499268 13L3.50087 9.6336L3.10087 5.0992L7.50087 4.1328L9.83367 0.233597L14.0001 2.0336L18.1665 0.233597L20.4993 4.1328L24.8993 5.0992L24.4993 9.6336L27.5009 13L24.4993 16.3664L24.8993 20.9008L20.4993 21.8672L18.1665 25.7664L14.0001 23.9664L9.83367 25.7664ZM10.5329 23.5664L14.0001 22.1328L17.4337 23.5664L19.4001 20.3328L23.0673 19.5328L22.7329 15.8L25.2001 13L22.7329 10.2336L23.0673 6.5008L19.4001 5.6672L17.4673 2.4336L14.0001 3.8672L10.5665 2.4336L8.60007 5.6672L4.93287 6.4672L5.26727 10.2336L2.80007 13L5.29927 15.8L4.93287 19.5328L8.60007 20.3664L10.5329 23.5664ZM12.3009 17.3328L19.7665 9.8992L18.5329 8.6992L12.3009 14.9008L9.46727 12.0672L8.23367 13.3008L12.3009 17.3328Z" fill="#4A9016"/>
</svg>
