<svg width="93" height="107" viewBox="0 0 93 107" fill="none" xmlns="http://www.w3.org/2000/svg">
<path d="M0 48.625V36.75H9.5C12 31.4167 15.4375 26.8125 19.8125 22.9375C24.1875 19.0625 29.1667 16.125 34.75 14.125L29.375 8.75L37.75 0.375L47.375 10C48.4583 11.0833 49.2083 12.3958 49.625 13.9375C50.0417 15.4792 50 17 49.5 18.5C48.9167 20 48.0208 21.2708 46.8125 22.3125C45.6042 23.3542 44.2083 24 42.625 24.25C36.9583 25.0833 32 27.3333 27.75 31C23.5 34.6667 20.625 39.2083 19.125 44.625L18 48.625H0ZM61.125 53C61.125 49.4167 61.8333 46.0417 63.25 42.875C64.6667 39.7083 66.75 37.0417 69.5 34.875C67.5833 32.7083 65.4375 30.75 63.0625 29C60.6875 27.25 58.125 25.9167 55.375 25L58.75 13.75C63.9167 15.3333 68.5625 17.8333 72.6875 21.25C76.8125 24.6667 80.1667 28.7083 82.75 33.375C86.1667 35.125 88.7083 37.8333 90.375 41.5C92.0417 45.1667 92.875 49 92.875 53C92.875 57 92.0625 60.8125 90.4375 64.4375C88.8125 68.0625 86.25 70.75 82.75 72.5C80.1667 77.25 76.7917 81.3333 72.625 84.75C68.4583 88.1667 63.7917 90.625 58.625 92.125L55.375 80.875C58.375 79.9583 60.9792 78.6875 63.1875 77.0625C65.3958 75.4375 67.5 73.4583 69.5 71.125C66.4167 68.7083 64.25 66.0625 63 63.1875C61.75 60.3125 61.125 56.9167 61.125 53ZM77 62.125C78.1667 62.125 79.1458 61.2292 79.9375 59.4375C80.7292 57.6458 81.125 55.5 81.125 53C81.125 50.5 80.7292 48.3542 79.9375 46.5625C79.1458 44.7708 78.1667 43.875 77 43.875C75.8333 43.875 74.8542 44.7708 74.0625 46.5625C73.2708 48.3542 72.875 50.5 72.875 53C72.875 55.5 73.2708 57.6458 74.0625 59.4375C74.8542 61.2292 75.8333 62.125 77 62.125ZM37.125 106.125L28.75 97.75L34.75 91.75C29.1667 89.8333 24.1875 86.9375 19.8125 83.0625C15.4375 79.1875 12 74.5417 9.5 69.125H0V57.375H18L19.125 61.25C20.7083 66.75 23.625 71.3333 27.875 75C32.125 78.6667 37.0417 80.9167 42.625 81.75C44.2083 82 45.6042 82.6042 46.8125 83.5625C48.0208 84.5208 48.9167 85.7917 49.5 87.375C50 88.9583 50.0417 90.5208 49.625 92.0625C49.2083 93.6042 48.4583 94.9167 47.375 96L37.125 106.125Z" fill="#FDB62A"/>
</svg>
