<svg width="16" height="15" viewBox="0 0 16 15" fill="none" xmlns="http://www.w3.org/2000/svg">
<path d="M1.49999 11.833V13.25C1.49999 13.3053 1.52766 13.361 1.58299 13.417C1.63899 13.4723 1.69466 13.5 1.74999 13.5H14.25C14.3053 13.5 14.361 13.4723 14.417 13.417C14.4723 13.361 14.5 13.3053 14.5 13.25V11.833H1.49999ZM1.74999 3.438H4.37499C4.33299 3.31267 4.29466 3.18734 4.25999 3.062C4.22533 2.93734 4.20799 2.81267 4.20799 2.688C4.20799 2.174 4.38533 1.73967 4.73999 1.385C5.09399 1.031 5.54866 0.854004 6.10399 0.854004C6.35399 0.854004 6.59699 0.90267 6.83299 1C7.06966 1.09734 7.26433 1.25 7.41699 1.458L7.97899 2.271L8.58299 1.479C8.73566 1.285 8.91966 1.13234 9.13499 1.021C9.35033 0.90967 9.58299 0.854004 9.83299 0.854004C10.4303 0.854004 10.8993 1.02767 11.24 1.375C11.58 1.72234 11.75 2.16 11.75 2.688C11.75 2.81267 11.736 2.93734 11.708 3.062C11.6807 3.18734 11.639 3.31267 11.583 3.438H14.25C14.6247 3.438 14.9407 3.56634 15.198 3.823C15.4547 4.07967 15.583 4.39567 15.583 4.771V13.25C15.583 13.6247 15.4547 13.9407 15.198 14.198C14.9407 14.4547 14.6247 14.583 14.25 14.583H1.74999C1.38866 14.583 1.07599 14.4547 0.811992 14.198C0.548659 13.9407 0.416992 13.6247 0.416992 13.25V4.771C0.416992 4.39567 0.548659 4.07967 0.811992 3.823C1.07599 3.56634 1.38866 3.438 1.74999 3.438ZM1.49999 10.167H14.5V4.771C14.5 4.70167 14.4723 4.64267 14.417 4.594C14.361 4.54534 14.3053 4.521 14.25 4.521H9.62499L11.417 6.938L10.542 7.604L7.99999 4.104L5.45799 7.604L4.58299 6.938L6.35399 4.521H1.74999C1.69466 4.521 1.63899 4.54534 1.58299 4.594C1.52766 4.64267 1.49999 4.70167 1.49999 4.771V10.167ZM6.02099 3.417C6.22899 3.417 6.40599 3.344 6.55199 3.198C6.69799 3.052 6.77099 2.875 6.77099 2.667C6.77099 2.45834 6.69799 2.281 6.55199 2.135C6.40599 1.98967 6.22899 1.917 6.02099 1.917C5.81233 1.917 5.63533 1.98634 5.48999 2.125C5.34399 2.26367 5.27099 2.44434 5.27099 2.667C5.27099 2.875 5.34399 3.052 5.48999 3.198C5.63533 3.344 5.81233 3.417 6.02099 3.417ZM9.93799 3.417C10.146 3.417 10.323 3.344 10.469 3.198C10.615 3.052 10.688 2.875 10.688 2.667C10.688 2.45834 10.6183 2.281 10.479 2.135C10.3403 1.98967 10.1667 1.917 9.95799 1.917C9.73599 1.917 9.55199 1.98634 9.40599 2.125C9.26066 2.26367 9.18799 2.44434 9.18799 2.667C9.18799 2.875 9.26066 3.052 9.40599 3.198C9.55199 3.344 9.72933 3.417 9.93799 3.417Z" fill="#FDB62A"/>
</svg>
