<svg width="14" height="13" viewBox="0 0 14 13" fill="none" xmlns="http://www.w3.org/2000/svg">
<path d="M1.14999 10.4497V11.725C1.14999 11.7748 1.17489 11.8249 1.22469 11.8753C1.27509 11.9251 1.32519 11.95 1.37499 11.95H12.625C12.6748 11.95 12.7249 11.9251 12.7753 11.8753C12.8251 11.8249 12.85 11.7748 12.85 11.725V10.4497H1.14999ZM1.37499 2.8942H3.73749C3.69969 2.7814 3.66519 2.6686 3.63399 2.5558C3.60279 2.4436 3.58719 2.3314 3.58719 2.2192C3.58719 1.7566 3.74679 1.3657 4.06599 1.0465C4.38459 0.727903 4.79379 0.568604 5.29359 0.568604C5.51859 0.568604 5.73729 0.612403 5.94969 0.700003C6.16269 0.787603 6.33789 0.925003 6.47529 1.1122L6.98109 1.8439L7.52469 1.1311C7.66209 0.956504 7.82769 0.819103 8.02149 0.718903C8.21529 0.618703 8.42469 0.568604 8.64969 0.568604C9.18729 0.568604 9.60939 0.724903 9.91599 1.0375C10.222 1.3501 10.375 1.744 10.375 2.2192C10.375 2.3314 10.3624 2.4436 10.3372 2.5558C10.3126 2.6686 10.2751 2.7814 10.2247 2.8942H12.625C12.9622 2.8942 13.2466 3.0097 13.4782 3.2407C13.7092 3.4717 13.8247 3.7561 13.8247 4.0939V11.725C13.8247 12.0622 13.7092 12.3466 13.4782 12.5782C13.2466 12.8092 12.9622 12.9247 12.625 12.9247H1.37499C1.04979 12.9247 0.768393 12.8092 0.530793 12.5782C0.293793 12.3466 0.175293 12.0622 0.175293 11.725V4.0939C0.175293 3.7561 0.293793 3.4717 0.530793 3.2407C0.768393 3.0097 1.04979 2.8942 1.37499 2.8942ZM1.14999 8.9503H12.85V4.0939C12.85 4.0315 12.8251 3.9784 12.7753 3.9346C12.7249 3.8908 12.6748 3.8689 12.625 3.8689H8.46249L10.0753 6.0442L9.28779 6.6436L6.99999 3.4936L4.71219 6.6436L3.92469 6.0442L5.51859 3.8689H1.37499C1.32519 3.8689 1.27509 3.8908 1.22469 3.9346C1.17489 3.9784 1.14999 4.0315 1.14999 4.0939V8.9503ZM5.21889 2.8753C5.40609 2.8753 5.56539 2.8096 5.69679 2.6782C5.82819 2.5468 5.89389 2.3875 5.89389 2.2003C5.89389 2.0125 5.82819 1.8529 5.69679 1.7215C5.56539 1.5907 5.40609 1.5253 5.21889 1.5253C5.03109 1.5253 4.87179 1.5877 4.74099 1.7125C4.60959 1.8373 4.54389 1.9999 4.54389 2.2003C4.54389 2.3875 4.60959 2.5468 4.74099 2.6782C4.87179 2.8096 5.03109 2.8753 5.21889 2.8753ZM8.74419 2.8753C8.93139 2.8753 9.09069 2.8096 9.22209 2.6782C9.35349 2.5468 9.41919 2.3875 9.41919 2.2003C9.41919 2.0125 9.35649 1.8529 9.23109 1.7215C9.10629 1.5907 8.94999 1.5253 8.76219 1.5253C8.56239 1.5253 8.39679 1.5877 8.26539 1.7125C8.13459 1.8373 8.06919 1.9999 8.06919 2.2003C8.06919 2.3875 8.13459 2.5468 8.26539 2.6782C8.39679 2.8096 8.55639 2.8753 8.74419 2.8753Z" fill="#279FDB"/>
</svg>
