<svg width="22" height="23" viewBox="0 0 22 23" fill="none" xmlns="http://www.w3.org/2000/svg">
<path d="M2.20012 22.2C1.66678 22.2 1.21665 22.0165 0.849716 21.6496C0.482783 21.2827 0.299316 20.8325 0.299316 20.2992C0.299316 19.7883 0.48865 19.3499 0.867316 18.984C1.24492 18.6171 1.68918 18.4336 2.20012 18.4336C2.73345 18.4336 3.18358 18.6171 3.55052 18.984C3.91745 19.3499 4.10092 19.7995 4.10092 20.3328C4.10092 20.8437 3.91158 21.2827 3.53292 21.6496C3.15532 22.0165 2.71105 22.2 2.20012 22.2ZM19.4993 22.2C19.4993 19.5557 18.9942 17.0667 17.9841 14.7328C16.9729 12.4 15.6006 10.3669 13.8673 8.63359C12.134 6.90025 10.1004 5.52799 7.76652 4.51679C5.43372 3.50559 2.94465 2.99999 0.299316 2.99999V0.833588C3.25505 0.833588 6.03318 1.39465 8.63372 2.51679C11.2332 3.63892 13.494 5.16639 15.4161 7.09919C17.3382 9.03305 18.8662 11.2944 20.0001 13.8832C21.134 16.472 21.7009 19.2443 21.7009 22.2H19.4993ZM11.4993 22.2C11.4993 19.0885 10.4108 16.4443 8.23372 14.2672C6.05558 12.0891 3.41078 11 0.299316 11V8.83359C2.14465 8.83359 3.88385 9.18345 5.51692 9.88319C7.14998 10.5829 8.56652 11.5387 9.76652 12.7504C10.9665 13.9611 11.9222 15.3776 12.6337 17C13.3452 18.6224 13.7009 20.3557 13.7009 22.2H11.4993Z" fill="#F15E33"/>
</svg>
