<svg width="16" height="16" viewBox="0 0 16 16" fill="none" xmlns="http://www.w3.org/2000/svg">
<path d="M15.2927 16L9.19512 9.89313C8.70732 10.3003 8.14634 10.6178 7.51219 10.8458C6.87805 11.0738 6.2439 11.1878 5.60976 11.1878C4.03252 11.1878 2.70341 10.6461 1.62244 9.56287C0.540813 8.48024 0 7.15725 0 5.59389C0 4.03053 0.540813 2.70722 1.62244 1.62394C2.70341 0.541313 4.02439 0 5.58536 0C7.14634 0 8.47154 0.541313 9.56098 1.62394C10.6504 2.70722 11.1951 4.03053 11.1951 5.59389C11.1951 6.27786 11.0732 6.9374 10.8293 7.57252C10.5854 8.20763 10.2683 8.74504 9.87805 9.18473L16 15.316L15.2927 16ZM5.60976 10.2107C6.89431 10.2107 7.98374 9.76708 8.87805 8.87988C9.77236 7.99202 10.2195 6.89669 10.2195 5.59389C10.2195 4.29109 9.77236 3.19577 8.87805 2.30791C7.98374 1.4207 6.89431 0.977099 5.60976 0.977099C4.30894 0.977099 3.21138 1.4207 2.31707 2.30791C1.42276 3.19577 0.97561 4.29109 0.97561 5.59389C0.97561 6.89669 1.42276 7.99202 2.31707 8.87988C3.21138 9.76708 4.30894 10.2107 5.60976 10.2107Z" fill="#595959"/>
</svg>
