<svg width="16" height="16" viewBox="0 0 16 16" fill="none" xmlns="http://www.w3.org/2000/svg">
<path d="M15.9868 6.78142C15.6924 5.84102 14.9362 5.11254 13.9793 4.84764C14.0395 4.66221 14.0729 4.47016 14.0729 4.27148C14.0729 3.73506 13.8588 3.2185 13.4707 2.84102C13.0759 2.45029 12.5472 2.23175 11.9918 2.22512H11.9115C11.8981 1.64897 11.6572 1.10592 11.2423 0.701946C10.3724 -0.185471 8.94706 -0.198716 8.05036 0.662211C7.64217 0.251615 7.08675 0.0132042 6.51126 -4.08653e-05H6.50457C5.2599 -0.0199084 4.23606 0.966846 4.21598 2.19863H4.14237C3.58027 2.19863 3.04493 2.4238 2.65011 2.82115C2.12146 3.33771 1.93409 4.10592 2.14823 4.80791C1.56605 4.96685 1.05078 5.29797 0.662659 5.75493C-0.354489 6.98009 -0.180503 8.78804 1.05747 9.80128C0.709502 10.2781 0.522132 10.8609 0.528824 11.4503C0.528824 12.8675 1.69319 14.0198 3.12523 14.0198H3.17207C3.40628 14.0198 3.62042 14.1655 3.70741 14.3841C4.10222 15.3576 5.05915 16 6.11644 16C6.49118 16 6.86592 15.9271 7.2072 15.7748C7.52171 15.6291 7.66224 15.2582 7.51502 14.947C7.3678 14.6357 6.99306 14.4966 6.67855 14.6423C6.65848 14.649 6.6384 14.6622 6.61833 14.6688C5.92908 14.9337 5.15283 14.596 4.88516 13.9139C4.60411 13.2251 3.93493 12.7748 3.18545 12.7748H3.13192C2.39582 12.7748 1.79357 12.1788 1.79357 11.4503C1.79357 11.0529 1.94079 10.6688 2.20846 10.3708C2.42928 10.4238 2.65011 10.4569 2.87763 10.4569C3.17876 10.4238 3.41297 10.192 3.44643 9.894C3.47989 9.54963 3.2256 9.23837 2.87763 9.20526C2.06793 9.20526 1.37868 8.6291 1.25153 7.8344C1.11101 6.94698 1.71996 6.11916 2.61665 5.98009L3.23899 5.88738C3.38621 5.86751 3.52004 5.79466 3.62042 5.68208C3.83455 5.41718 3.80779 5.03969 3.56688 4.80128C3.39959 4.65559 3.29921 4.44367 3.29921 4.22512C3.29921 4.01983 3.37951 3.82777 3.52673 3.6887C3.68064 3.52976 3.89478 3.44367 4.11561 3.43705H4.23606C4.90524 3.43705 5.45396 2.90062 5.46065 2.23837C5.45396 1.69532 5.88892 1.25161 6.43765 1.24499C6.9663 1.24499 7.39457 1.66883 7.40126 2.19201V7.05956H7.3678C7.3678 7.40393 7.64886 7.68208 7.99683 7.68208C8.01021 7.68208 8.0236 7.68208 8.03698 7.68208C8.38495 7.68208 8.66601 7.40393 8.66601 7.05956V2.17877C8.67939 1.64234 9.12105 1.23175 9.65639 1.24499C9.66977 1.24499 9.68985 1.24499 9.70323 1.24499C10.252 1.27148 10.6668 1.73506 10.6401 2.2781C10.6468 2.94036 11.1955 3.47678 11.8647 3.4834H11.9517C12.1725 3.4834 12.3799 3.5695 12.5338 3.72181C12.6811 3.86751 12.7614 4.05956 12.7614 4.26486C12.7614 4.4834 12.661 4.69532 12.4937 4.84102C12.3866 4.94036 12.313 5.07281 12.2862 5.2185C12.2327 5.55625 12.4736 5.87413 12.8149 5.92711L13.4372 6.02645C14.0663 6.10592 14.5949 6.54963 14.7756 7.15228C14.8893 7.44367 15.2039 7.60261 15.5117 7.53638C15.853 7.45691 16.0671 7.11916 15.9868 6.78142Z" fill="#279FDB"/>
</svg>
