<svg width="19" height="14" viewBox="0 0 19 14" fill="none" xmlns="http://www.w3.org/2000/svg">
<path d="M7.36972 13.7648C6.9 13.7621 6.4505 13.5733 6.11972 13.2398L1.45305 8.54812C1.05613 8.14982 0.833252 7.61043 0.833252 7.04812C0.833252 6.48581 1.05613 5.94642 1.45305 5.54812L6.13639 0.848122C6.46884 0.518362 6.91813 0.333328 7.38639 0.333328C7.85465 0.333328 8.30393 0.518362 8.63639 0.848122C8.80088 1.01023 8.93132 1.20357 9.02005 1.4168C9.10878 1.63003 9.15399 1.85884 9.15305 2.08979V6.33979H18.2031C18.3909 6.33979 18.5711 6.41442 18.7039 6.54725C18.8368 6.68009 18.9114 6.86026 18.9114 7.04812C18.9114 7.23598 18.8368 7.41615 18.7039 7.54899C18.5711 7.68183 18.3909 7.75645 18.2031 7.75645H9.15305C8.77733 7.75645 8.41699 7.60719 8.15132 7.34152C7.88564 7.07584 7.73639 6.71551 7.73639 6.33979V2.09812C7.73719 2.02731 7.71596 1.958 7.67566 1.89978C7.63535 1.84155 7.57794 1.79729 7.51138 1.77312C7.44601 1.74541 7.37389 1.73775 7.30415 1.7511C7.23442 1.76445 7.17023 1.79822 7.11972 1.84812L2.43638 6.54812C2.30408 6.68089 2.22979 6.86068 2.22979 7.04812C2.22979 7.23555 2.30408 7.41535 2.43638 7.54812L7.11972 12.2398C7.17092 12.2914 7.2366 12.3262 7.30804 12.3396C7.37948 12.353 7.45331 12.3443 7.51972 12.3148C7.58543 12.2903 7.64174 12.2457 7.68064 12.1873C7.71954 12.129 7.73905 12.0599 7.73639 11.9898V10.5065C7.73639 10.3186 7.81101 10.1384 7.94385 10.0056C8.07669 9.87274 8.25686 9.79812 8.44472 9.79812C8.63258 9.79812 8.81275 9.87274 8.94559 10.0056C9.07843 10.1384 9.15305 10.3186 9.15305 10.5065V12.0231C9.1487 12.4925 8.9603 12.9415 8.62836 13.2734C8.29642 13.6054 7.84747 13.7938 7.37805 13.7981L7.36972 13.7648Z" fill="#4A9016"/>
</svg>
