<svg width="19" height="14" viewBox="0 0 19 14" fill="none" xmlns="http://www.w3.org/2000/svg">
<path d="M7.36972 13.7647C6.9 13.762 6.4505 13.5732 6.11972 13.2397L1.45305 8.54804C1.05613 8.14974 0.833252 7.61035 0.833252 7.04804C0.833252 6.48573 1.05613 5.94635 1.45305 5.54804L6.13639 0.848045C6.46884 0.518286 6.91813 0.333252 7.38639 0.333252C7.85465 0.333252 8.30393 0.518286 8.63639 0.848045C8.80088 1.01015 8.93132 1.20349 9.02005 1.41672C9.10878 1.62995 9.15399 1.85876 9.15305 2.08971V6.33971H18.2031C18.3909 6.33971 18.5711 6.41434 18.7039 6.54718C18.8368 6.68002 18.9114 6.86018 18.9114 7.04804C18.9114 7.2359 18.8368 7.41607 18.7039 7.54891C18.5711 7.68175 18.3909 7.75637 18.2031 7.75637H9.15305C8.77733 7.75637 8.41699 7.60712 8.15132 7.34144C7.88564 7.07577 7.73639 6.71543 7.73639 6.33971V2.09805C7.73719 2.02724 7.71596 1.95792 7.67566 1.8997C7.63535 1.84148 7.57794 1.79722 7.51138 1.77304C7.44601 1.74533 7.37389 1.73767 7.30415 1.75102C7.23442 1.76438 7.17023 1.79815 7.11972 1.84804L2.43638 6.54804C2.30408 6.68081 2.22979 6.8606 2.22979 7.04804C2.22979 7.23548 2.30408 7.41527 2.43638 7.54804L7.11972 12.2397C7.17092 12.2913 7.2366 12.3261 7.30804 12.3395C7.37948 12.3529 7.45331 12.3443 7.51972 12.3147C7.58543 12.2902 7.64174 12.2456 7.68064 12.1873C7.71954 12.1289 7.73905 12.0598 7.73639 11.9897V10.5064C7.73639 10.3185 7.81101 10.1383 7.94385 10.0055C8.07669 9.87267 8.25686 9.79804 8.44472 9.79804C8.63258 9.79804 8.81275 9.87267 8.94559 10.0055C9.07843 10.1383 9.15305 10.3185 9.15305 10.5064V12.023C9.1487 12.4925 8.9603 12.9414 8.62836 13.2734C8.29642 13.6053 7.84747 13.7937 7.37805 13.798L7.36972 13.7647Z" fill="#FDB62A"/>
</svg>
