<svg width="16" height="16" viewBox="0 0 16 16" fill="none" xmlns="http://www.w3.org/2000/svg">
<path d="M7.35441 7.06941V2.22197C7.35529 2.09684 7.3312 1.97278 7.28353 1.857C7.23586 1.74122 7.16557 1.63604 7.07674 1.54756C6.98791 1.45907 6.88231 1.38906 6.76608 1.34157C6.64984 1.29409 6.5253 1.27009 6.39968 1.27097C6.26995 1.27269 6.14182 1.29986 6.02263 1.35091C5.90343 1.40196 5.7955 1.47589 5.705 1.5685C5.6145 1.6611 5.54319 1.77056 5.49516 1.89061C5.44713 2.01067 5.42331 2.13897 5.42506 2.2682C5.41813 2.58413 5.28724 2.88478 5.06045 3.10575C4.83366 3.32672 4.529 3.45041 4.21176 3.45034H4.07916C3.97041 3.44991 3.8627 3.47133 3.76245 3.51331C3.6622 3.5553 3.57148 3.61699 3.49571 3.69469C3.42399 3.76558 3.36713 3.84996 3.32843 3.94292C3.28974 4.03589 3.26997 4.13559 3.27029 4.23623C3.27132 4.34522 3.29547 4.45275 3.34118 4.55177C3.38689 4.6508 3.45311 4.73907 3.5355 4.81079C3.59704 4.86489 3.64725 4.93057 3.68325 5.00405C3.71924 5.07753 3.74031 5.15737 3.74524 5.23899C3.75016 5.3206 3.73886 5.40238 3.71197 5.47963C3.68508 5.55689 3.64313 5.62809 3.58853 5.68914C3.48891 5.79733 3.35593 5.86936 3.21062 5.89387L2.59402 5.98633C2.18977 6.04991 1.82452 6.26316 1.5713 6.58342C1.31807 6.90368 1.19554 7.30734 1.22821 7.7137C1.26088 8.12006 1.44634 8.49916 1.74751 8.7752C2.04867 9.05123 2.44334 9.20385 2.8526 9.20255C3.00765 9.21846 3.15128 9.29107 3.2557 9.40635C3.36012 9.52162 3.41792 9.67137 3.41792 9.82664C3.41792 9.9819 3.36012 10.1317 3.2557 10.2469C3.15128 10.3622 3.00765 10.4348 2.8526 10.4507C2.62909 10.4466 2.40673 10.4178 2.18959 10.3649C1.92466 10.6613 1.77837 11.0445 1.77853 11.4414C1.77853 11.7917 1.91823 12.1276 2.16691 12.3753C2.41558 12.623 2.75286 12.7622 3.10454 12.7622H3.15758C3.52002 12.7626 3.87404 12.871 4.17414 13.0734C4.47424 13.2758 4.70669 13.563 4.84161 13.8981C4.98214 14.2278 5.24753 14.489 5.58019 14.625C5.91285 14.761 6.28593 14.7608 6.61847 14.6246C6.69291 14.5899 6.77348 14.5701 6.85559 14.5664C6.93769 14.5628 7.01972 14.5752 7.09698 14.6031C7.17425 14.631 7.24524 14.6738 7.30591 14.7291C7.36657 14.7843 7.41572 14.8509 7.45054 14.925C7.48537 14.9992 7.50519 15.0795 7.50888 15.1612C7.51257 15.243 7.50005 15.3247 7.47204 15.4017C7.44402 15.4786 7.40107 15.5494 7.34562 15.6098C7.29017 15.6702 7.22332 15.7192 7.14888 15.7539C6.50255 16.0269 5.7739 16.0336 5.12265 15.7724C4.4714 15.5112 3.95071 15.0034 3.67473 14.3604C3.63228 14.2549 3.55904 14.1645 3.46448 14.101C3.36993 14.0374 3.2584 14.0035 3.14432 14.0038H3.09791C2.41504 14.002 1.76074 13.7306 1.2785 13.249C0.796259 12.7674 0.525448 12.1149 0.52545 11.4347C0.520577 10.8451 0.704002 10.2693 1.04923 9.79032C0.641136 9.4566 0.333343 9.01725 0.159698 8.52058C-0.0139477 8.0239 -0.0467209 7.48915 0.0649853 6.97513C0.176692 6.4611 0.42855 5.98771 0.792859 5.60704C1.15717 5.22636 1.61982 4.95313 2.12992 4.8174C2.07488 4.63298 2.04587 4.44182 2.04373 4.24944C2.04045 3.98491 2.09038 3.7224 2.19058 3.4774C2.29079 3.2324 2.43924 3.00988 2.62718 2.82295C2.81992 2.6269 3.04992 2.47104 3.30376 2.36446C3.5576 2.25788 3.8302 2.2027 4.10568 2.20216H4.18524C4.19285 1.76716 4.32791 1.34386 4.57381 0.984305C4.81971 0.624748 5.16574 0.344605 5.56934 0.178321C5.97295 0.0120372 6.41654 -0.0331381 6.84558 0.0483465C7.27462 0.129831 7.6704 0.334423 7.98426 0.636972C8.29698 0.331349 8.69298 0.124043 9.12304 0.040834C9.5531 -0.0423746 9.99823 0.00218991 10.4031 0.16898C10.8079 0.33577 11.1546 0.617424 11.4 0.978919C11.6454 1.34041 11.7787 1.7658 11.7833 2.20216H11.8695C12.419 2.20544 12.9452 2.42364 13.3347 2.80974C13.7131 3.18879 13.9252 3.70171 13.9248 4.23623C13.9242 4.43357 13.8929 4.62962 13.832 4.8174C14.2999 4.94568 14.7276 5.18975 15.0753 5.52692C15.4231 5.86408 15.6796 6.28338 15.821 6.74581C15.8524 6.89891 15.8253 7.05818 15.7451 7.19244C15.6648 7.3267 15.5371 7.42629 15.387 7.47173C15.2369 7.51716 15.0752 7.50516 14.9335 7.43808C14.7918 7.371 14.6804 7.25366 14.6209 7.10904C14.5296 6.81589 14.3564 6.55467 14.1216 6.35587C13.8868 6.15708 13.6001 6.02891 13.2949 5.98633L12.6783 5.89387C12.518 5.86044 12.3758 5.76907 12.279 5.63737C12.1823 5.50567 12.138 5.34296 12.1546 5.18063C12.1806 5.03825 12.2528 4.90831 12.3601 4.81079C12.443 4.73806 12.5095 4.64867 12.5552 4.5485C12.6009 4.44834 12.6248 4.33966 12.6253 4.22963C12.6255 4.12999 12.6056 4.03132 12.5669 3.93945C12.5282 3.84757 12.4714 3.76435 12.3999 3.69469C12.3247 3.61808 12.235 3.55705 12.136 3.51511C12.037 3.47317 11.9306 3.45116 11.8231 3.45034H11.6971C11.5384 3.45121 11.3811 3.42072 11.2343 3.36063C11.0875 3.30053 10.9541 3.21204 10.8419 3.10025C10.7297 2.98846 10.6408 2.85561 10.5805 2.70939C10.5202 2.56316 10.4895 2.40647 10.4904 2.24838C10.4913 2.11916 10.4666 1.99103 10.4178 1.87131C10.3689 1.75159 10.2969 1.64263 10.2058 1.55064C10.1147 1.45865 10.0062 1.38544 9.88672 1.33519C9.76719 1.28493 9.6389 1.25863 9.50917 1.25776C9.25707 1.25243 9.01309 1.34667 8.83049 1.51989C8.64789 1.69312 8.5415 1.93126 8.53455 2.18234V7.0562C8.52441 7.2244 8.4501 7.38237 8.32684 7.49778C8.20359 7.61318 8.04071 7.6773 7.87155 7.67699C7.70626 7.67699 7.54774 7.61159 7.43086 7.49517C7.31398 7.37875 7.24833 7.22084 7.24833 7.0562L7.35441 7.06941ZM15.9735 11.7782C15.9754 12.7533 15.6378 13.6989 15.0181 14.4537C14.3984 15.2086 13.5351 15.726 12.5752 15.9177C11.6154 16.1095 10.6185 15.9637 9.75458 15.5052C8.89061 15.0467 8.21304 14.3039 7.83738 13.4034C7.46172 12.503 7.41124 11.5006 7.69453 10.5672C7.97783 9.63383 8.57736 8.82722 9.39092 8.28489C10.2045 7.74256 11.1817 7.4981 12.156 7.59318C13.1302 7.68826 14.0412 8.117 14.7337 8.8063C15.1332 9.19241 15.451 9.65427 15.6685 10.1647C15.886 10.6751 15.9987 11.2237 16 11.7782H15.9735ZM13.8519 9.68465C13.4355 9.26997 12.9051 8.98757 12.3276 8.87317C11.7502 8.75877 11.1516 8.8175 10.6077 9.04194C10.0637 9.26638 9.59883 9.64644 9.27173 10.1341C8.94463 10.6217 8.77005 11.195 8.77005 11.7815C8.77005 12.3679 8.94463 12.9412 9.27173 13.4289C9.59883 13.9165 10.0637 14.2966 10.6077 14.521C11.1516 14.7454 11.7502 14.8042 12.3276 14.6898C12.9051 14.5754 13.4355 14.293 13.8519 13.8783C14.1291 13.6034 14.3491 13.2766 14.4992 12.9168C14.6493 12.557 14.7266 12.1711 14.7266 11.7815C14.7266 11.3918 14.6493 11.006 14.4992 10.6461C14.3491 10.2863 14.1291 9.95956 13.8519 9.68465ZM13.0761 10.4573C12.9543 10.3478 12.796 10.2872 12.6319 10.2872C12.4678 10.2872 12.3095 10.3478 12.1877 10.4573L11.7435 10.8998L11.3059 10.4573C11.1819 10.3562 11.0238 10.3059 10.8639 10.3168C10.704 10.3277 10.5542 10.3989 10.4452 10.5159C10.3361 10.633 10.276 10.787 10.277 10.9467C10.278 11.1064 10.3401 11.2597 10.4506 11.3753L10.8882 11.8112L10.4506 12.2537C10.3337 12.3701 10.268 12.5281 10.268 12.6928C10.268 12.8576 10.3337 13.0155 10.4506 13.132C10.5676 13.2485 10.7262 13.3139 10.8915 13.3139C11.0569 13.3139 11.2155 13.2485 11.3324 13.132L11.7767 12.6961L12.2142 13.132C12.3349 13.2286 12.4871 13.2775 12.6417 13.2694C12.7963 13.2613 12.9425 13.1968 13.0523 13.0881C13.1622 12.9795 13.2281 12.8344 13.2374 12.6805C13.2466 12.5265 13.1987 12.3746 13.1027 12.2537L12.6585 11.8112L13.1027 11.3753C13.2126 11.254 13.2735 11.0963 13.2735 10.9328C13.2735 10.7694 13.2126 10.6117 13.1027 10.4904L13.0761 10.4573Z" fill="#595959"/>
</svg>
