<svg width="19" height="14" viewBox="0 0 19 14" fill="none" xmlns="http://www.w3.org/2000/svg">
<path d="M7.36972 13.7648C6.9 13.7621 6.4505 13.5733 6.11972 13.2398L1.45305 8.54813C1.05613 8.14983 0.833252 7.61044 0.833252 7.04813C0.833252 6.48582 1.05613 5.94644 1.45305 5.54814L6.13639 0.848137C6.46884 0.518377 6.91813 0.333344 7.38639 0.333344C7.85465 0.333344 8.30393 0.518377 8.63639 0.848137C8.80088 1.01024 8.93132 1.20359 9.02005 1.41681C9.10878 1.63004 9.15399 1.85885 9.15305 2.0898V6.3398H18.2031C18.3909 6.3398 18.5711 6.41443 18.7039 6.54727C18.8368 6.68011 18.9114 6.86027 18.9114 7.04813C18.9114 7.23599 18.8368 7.41616 18.7039 7.549C18.5711 7.68184 18.3909 7.75646 18.2031 7.75646H9.15305C8.77733 7.75646 8.41699 7.60721 8.15132 7.34153C7.88564 7.07586 7.73639 6.71552 7.73639 6.3398V2.09814C7.73719 2.02733 7.71596 1.95801 7.67566 1.89979C7.63535 1.84157 7.57794 1.79731 7.51138 1.77313C7.44601 1.74542 7.37389 1.73776 7.30416 1.75111C7.23442 1.76447 7.17023 1.79824 7.11972 1.84813L2.43638 6.54813C2.30408 6.6809 2.22979 6.8607 2.22979 7.04813C2.22979 7.23557 2.30408 7.41536 2.43638 7.54813L7.11972 12.2398C7.17092 12.2914 7.2366 12.3262 7.30804 12.3396C7.37948 12.353 7.45331 12.3443 7.51972 12.3148C7.58543 12.2903 7.64174 12.2457 7.68064 12.1874C7.71954 12.129 7.73905 12.0599 7.73639 11.9898V10.5065C7.73639 10.3186 7.81101 10.1384 7.94385 10.0056C8.07669 9.87276 8.25686 9.79813 8.44472 9.79813C8.63258 9.79813 8.81275 9.87276 8.94559 10.0056C9.07843 10.1384 9.15305 10.3186 9.15305 10.5065V12.0231C9.1487 12.4925 8.9603 12.9415 8.62836 13.2734C8.29642 13.6054 7.84747 13.7938 7.37805 13.7981L7.36972 13.7648Z" fill="#FEEFEB"/>
</svg>
