<svg width="19" height="14" viewBox="0 0 19 14" fill="none" xmlns="http://www.w3.org/2000/svg">
<path d="M7.36972 13.7645C6.9 13.7618 6.4505 13.573 6.11972 13.2395L1.45305 8.5478C1.05613 8.1495 0.833252 7.61011 0.833252 7.0478C0.833252 6.48549 1.05613 5.9461 1.45305 5.5478L6.13639 0.847801C6.46884 0.518042 6.91813 0.333008 7.38639 0.333008C7.85465 0.333008 8.30393 0.518042 8.63639 0.847801C8.80088 1.00991 8.93132 1.20325 9.02005 1.41648C9.10878 1.6297 9.15399 1.85852 9.15305 2.08947V6.33946H18.2031C18.3909 6.33946 18.5711 6.41409 18.7039 6.54693C18.8368 6.67977 18.9114 6.85994 18.9114 7.0478C18.9114 7.23566 18.8368 7.41583 18.7039 7.54867C18.5711 7.6815 18.3909 7.75613 18.2031 7.75613H9.15305C8.77733 7.75613 8.41699 7.60687 8.15132 7.3412C7.88564 7.07552 7.73639 6.71519 7.73639 6.33946V2.0978C7.73719 2.02699 7.71596 1.95768 7.67566 1.89946C7.63535 1.84123 7.57794 1.79697 7.51138 1.7728C7.44601 1.74509 7.37389 1.73743 7.30415 1.75078C7.23442 1.76413 7.17023 1.7979 7.11972 1.8478L2.43638 6.5478C2.30408 6.68057 2.22979 6.86036 2.22979 7.0478C2.22979 7.23523 2.30408 7.41503 2.43638 7.5478L7.11972 12.2395C7.17092 12.2911 7.2366 12.3259 7.30804 12.3393C7.37948 12.3527 7.45331 12.344 7.51972 12.3145C7.58543 12.29 7.64174 12.2454 7.68064 12.187C7.71954 12.1287 7.73905 12.0595 7.73639 11.9895V10.5061C7.73639 10.3183 7.81101 10.1381 7.94385 10.0053C8.07669 9.87242 8.25686 9.7978 8.44472 9.7978C8.63258 9.7978 8.81275 9.87242 8.94559 10.0053C9.07843 10.1381 9.15305 10.3183 9.15305 10.5061V12.0228C9.1487 12.4922 8.9603 12.9412 8.62836 13.2731C8.29642 13.605 7.84747 13.7934 7.37805 13.7978L7.36972 13.7645Z" fill="#F15E33"/>
</svg>
