<svg width="18" height="18" viewBox="0 0 18 18" fill="none" xmlns="http://www.w3.org/2000/svg">
<path d="M9.0037 14.119C9.35249 14.4318 9.80137 14.6086 10.2688 14.6171C10.66 14.6175 11.0426 14.5011 11.3679 14.2827C11.6933 14.0643 11.9467 13.7537 12.0962 13.3903C12.1024 13.3694 12.115 13.3509 12.1323 13.3375C12.1496 13.3242 12.1706 13.3166 12.1924 13.316C12.7206 13.3151 13.2276 13.107 13.6054 12.7361C13.7952 12.552 13.9461 12.3314 14.0491 12.0874C14.1521 11.8434 14.205 11.581 14.2047 11.316C14.2028 10.9509 14.0948 10.5942 13.894 10.29C14.0962 10.087 14.2566 9.84588 14.3661 9.58053C14.4755 9.31518 14.5319 9.03075 14.5319 8.7435C14.5319 8.45625 14.4755 8.17181 14.3661 7.90646C14.2566 7.6411 14.0962 7.40003 13.894 7.19703C13.6956 6.99763 13.459 6.8408 13.1985 6.73606C13.2022 6.66919 13.2022 6.60218 13.1985 6.53532C13.2 6.3263 13.1594 6.11914 13.0793 5.92624C12.9993 5.73333 12.8813 5.55865 12.7324 5.41264C12.4684 5.14414 12.1215 4.97374 11.7485 4.92937C11.7026 4.62877 11.58 4.34522 11.3928 4.10631C11.2055 3.8674 10.96 3.68126 10.6799 3.56599C10.3999 3.45072 10.0949 3.41026 9.7947 3.44853C9.49449 3.4868 9.20924 3.60251 8.96671 3.78439C8.72351 3.60287 8.43782 3.48748 8.13727 3.44937C7.83671 3.41126 7.53145 3.45173 7.25101 3.56685C6.97057 3.68198 6.72443 3.86787 6.53638 4.10655C6.34833 4.34524 6.22475 4.62864 6.17756 4.92937C5.78784 4.97825 5.42926 5.16836 5.1691 5.46404C4.90894 5.75971 4.76507 6.14063 4.76449 6.53532C4.76063 6.59721 4.76063 6.65929 4.76449 6.72119C4.43068 6.85591 4.13518 7.07146 3.90428 7.34866C3.67338 7.62587 3.51424 7.95613 3.44102 8.31007C3.3678 8.66401 3.38277 9.03065 3.48459 9.37737C3.58642 9.72409 3.77194 10.0401 4.02466 10.2974C3.89366 10.5263 3.80888 10.7789 3.77516 11.0407C3.74145 11.3026 3.75947 11.5686 3.82819 11.8234C3.89692 12.0782 4.01499 12.317 4.17566 12.5259C4.33632 12.7348 4.53642 12.9098 4.76449 13.0409C5.06893 13.215 5.41296 13.3072 5.76326 13.3086C5.78073 13.3107 5.79738 13.3173 5.81162 13.3277C5.82586 13.3381 5.83722 13.352 5.84464 13.368C5.99158 13.7379 6.24584 14.0548 6.57437 14.2776C6.90289 14.5003 7.2905 14.6186 7.68681 14.6171C7.92842 14.6278 8.16966 14.5891 8.39599 14.5035C8.62232 14.4179 8.82905 14.2871 9.0037 14.119ZM7.19852 12.8402C7.08888 12.5635 6.89909 12.3263 6.65374 12.1592C6.40839 11.9922 6.11879 11.9031 5.82244 11.9033C5.66743 11.9033 5.51877 11.8415 5.40916 11.7313C5.29956 11.6212 5.23798 11.4718 5.23798 11.316C5.24 11.1876 5.28134 11.063 5.35635 10.9591C5.45239 10.9665 5.54885 10.9665 5.64489 10.9591C5.74274 10.9692 5.84162 10.9586 5.93513 10.9279C6.02864 10.8972 6.11469 10.8471 6.18773 10.7809C6.26077 10.7147 6.31916 10.6338 6.35912 10.5435C6.39909 10.4531 6.41974 10.3554 6.41974 10.2565C6.41974 10.1576 6.39909 10.0599 6.35912 9.96955C6.31916 9.87922 6.26077 9.79833 6.18773 9.7321C6.11469 9.66588 6.02864 9.61579 5.93513 9.5851C5.84162 9.5544 5.74274 9.54377 5.64489 9.5539C5.45119 9.54482 5.26754 9.4646 5.12879 9.32847C4.99004 9.19234 4.90584 9.00976 4.89215 8.81538C4.87847 8.62099 4.93625 8.42832 5.05455 8.27391C5.17284 8.1195 5.34342 8.0141 5.53391 7.9777C5.60314 7.96829 5.67051 7.94823 5.73366 7.91822H5.82244C5.91763 7.91841 6.01184 7.89897 6.09925 7.86109C6.18665 7.82321 6.26539 7.76771 6.33058 7.69801C6.39577 7.62831 6.44603 7.5459 6.47825 7.45589C6.51047 7.36588 6.52396 7.27018 6.51788 7.17472C6.51874 7.07477 6.49801 6.97581 6.45714 6.88468C6.41627 6.79355 6.35622 6.7124 6.28114 6.64684C6.26306 6.59638 6.26306 6.54117 6.28114 6.49071C6.27847 6.46475 6.28175 6.43853 6.29073 6.41404C6.29971 6.38956 6.31414 6.36746 6.33293 6.34944C6.35597 6.32561 6.38359 6.30674 6.41411 6.29396C6.44463 6.28118 6.47742 6.27476 6.51048 6.27509H6.58447C6.72694 6.2751 6.86801 6.24678 6.99954 6.19176C7.13107 6.13675 7.25047 6.05612 7.35087 5.95454C7.45127 5.85295 7.53068 5.7324 7.58452 5.59985C7.63837 5.46729 7.66559 5.32533 7.66461 5.18216C7.66432 5.08457 7.70077 4.99048 7.76664 4.91878C7.8325 4.84707 7.92291 4.80304 8.01973 4.79554C8.06443 4.79354 8.10909 4.80043 8.15114 4.81579C8.19319 4.83116 8.23181 4.85471 8.2648 4.8851C8.29778 4.91548 8.32448 4.95211 8.34337 4.99287C8.36225 5.03364 8.37294 5.07775 8.37485 5.12268V10.1413C8.4235 10.29 8.51764 10.4195 8.64384 10.5113C8.77005 10.6032 8.92188 10.6526 9.07769 10.6526C9.23349 10.6526 9.38532 10.6032 9.51153 10.5113C9.63773 10.4195 9.73187 10.29 9.78052 10.1413V5.13755C9.78052 5.04684 9.81638 4.95985 9.8802 4.89571C9.94402 4.83157 10.0306 4.79554 10.1208 4.79554C10.2164 4.79938 10.3067 4.84024 10.3729 4.90954C10.4391 4.97885 10.476 5.07121 10.476 5.16728C10.474 5.31143 10.5004 5.45455 10.5538 5.58839C10.6071 5.72222 10.6862 5.84413 10.7866 5.9471C10.887 6.05007 11.0067 6.13207 11.1388 6.18836C11.2708 6.24465 11.4127 6.27413 11.5561 6.27509H11.6375C11.7121 6.27538 11.7837 6.30469 11.8372 6.35688C11.8554 6.37257 11.8701 6.39194 11.8803 6.41372C11.8905 6.4355 11.896 6.45921 11.8964 6.48327C11.8951 6.54784 11.8685 6.60928 11.8224 6.65427C11.7101 6.75295 11.6322 6.88534 11.6005 7.03187C11.5687 7.17841 11.5847 7.33133 11.6461 7.46803C11.7075 7.60473 11.811 7.71797 11.9413 7.791C12.0717 7.86404 12.2219 7.893 12.3699 7.87361C12.4331 7.90362 12.5004 7.92368 12.5697 7.93308C12.7472 7.96328 12.9092 8.0534 13.0289 8.18857C13.1486 8.32374 13.2189 8.49587 13.2281 8.67658C13.2354 8.7918 13.2186 8.90729 13.1788 9.01558C13.1389 9.12387 13.0769 9.22254 12.9967 9.30522C12.9165 9.38791 12.8199 9.45277 12.7133 9.4956C12.6066 9.53844 12.4921 9.5583 12.3773 9.5539C12.2795 9.54377 12.1806 9.5544 12.0871 9.5851C11.9936 9.61579 11.9075 9.66588 11.8345 9.7321C11.7614 9.79833 11.703 9.87922 11.6631 9.96955C11.6231 10.0599 11.6025 10.1576 11.6025 10.2565C11.6025 10.3554 11.6231 10.4531 11.6631 10.5435C11.703 10.6338 11.7614 10.7147 11.8345 10.7809C11.9075 10.8471 11.9936 10.8972 12.0871 10.9279C12.1806 10.9586 12.2795 10.9692 12.3773 10.9591C12.4857 10.9665 12.5945 10.9665 12.7028 10.9591C12.7894 11.0588 12.8413 11.184 12.8508 11.316C12.8432 11.4744 12.7752 11.6239 12.6608 11.7332C12.5465 11.8426 12.3946 11.9035 12.2367 11.9033C11.9383 11.9022 11.6464 11.9917 11.3995 12.1602C11.1526 12.3287 10.9622 12.5683 10.8533 12.8476C10.8085 12.9547 10.7335 13.0462 10.6375 13.111C10.5415 13.1757 10.4288 13.2108 10.3132 13.2119C10.0099 13.2119 9.78792 12.8848 9.71394 12.6989C9.67894 12.5454 9.59342 12.4084 9.47123 12.3098C9.34904 12.2113 9.19734 12.1572 9.04069 12.1561H8.97411C8.92504 12.1491 8.87522 12.1491 8.82614 12.1561C8.71899 12.189 8.62132 12.2474 8.54146 12.3264C8.4616 12.4053 8.4019 12.5025 8.36745 12.6097C8.12331 13.1524 7.97534 13.1747 7.75339 13.1747C7.63673 13.174 7.52296 13.1382 7.42671 13.072C7.33046 13.0057 7.25614 12.912 7.21332 12.803L7.19852 12.8402ZM16.1282 6.1487C16.0482 5.99552 16.0288 5.81753 16.0741 5.6506C16.1194 5.48366 16.226 5.34018 16.3724 5.24907C16.4481 5.20112 16.5325 5.16865 16.6208 5.15353C16.7091 5.13842 16.7994 5.14095 16.8867 5.16098C16.974 5.18101 17.0565 5.21814 17.1294 5.27026C17.2024 5.32237 17.2644 5.38844 17.312 5.46468V5.51673V5.5539C17.3921 5.7168 17.4052 5.90485 17.3484 6.07738C17.2917 6.24991 17.1696 6.39305 17.0086 6.47584H16.9568C16.8042 6.55063 16.6293 6.5654 16.4664 6.51726C16.3036 6.46911 16.1645 6.36152 16.0765 6.21561L16.1282 6.1487ZM14.6486 3.80669C14.5237 3.68675 14.4477 3.52438 14.4354 3.3512C14.4231 3.17803 14.4753 3.00646 14.582 2.86989C14.6381 2.79921 14.7075 2.7404 14.7864 2.69687C14.8652 2.65334 14.9518 2.62594 15.0413 2.61626C15.1307 2.60658 15.2212 2.61481 15.3074 2.64048C15.3937 2.66615 15.474 2.70874 15.5438 2.7658C15.6078 2.8288 15.6586 2.90398 15.6933 2.98697C15.728 3.06995 15.7458 3.15906 15.7458 3.24907C15.7458 3.33908 15.728 3.42819 15.6933 3.51117C15.6586 3.59416 15.6078 3.66935 15.5438 3.73235C15.4167 3.84991 15.2504 3.91516 15.0777 3.91516C14.905 3.91516 14.7386 3.84991 14.6116 3.73235L14.6486 3.80669ZM12.0222 1.30112C12.052 1.21596 12.0983 1.13758 12.1584 1.07049C12.2185 1.00341 12.2913 0.94894 12.3724 0.910235C12.4536 0.87153 12.5415 0.849352 12.6313 0.84498C12.721 0.840607 12.8107 0.854128 12.8952 0.88476H12.947C13.0287 0.92171 13.1024 0.974518 13.1638 1.04016C13.2251 1.10579 13.273 1.18297 13.3046 1.26725C13.3363 1.35152 13.351 1.44125 13.348 1.53127C13.3451 1.62129 13.3244 1.70984 13.2873 1.79182C13.2897 1.80909 13.2897 1.82661 13.2873 1.84387C13.2053 1.99815 13.0671 2.11453 12.9015 2.16859C12.736 2.22265 12.5561 2.21019 12.3995 2.13383C12.2417 2.06474 12.1158 1.93812 12.0471 1.77947C11.9785 1.62082 11.9722 1.44192 12.0296 1.27881L12.0222 1.30112ZM1.7386 11.8439C1.81736 11.9985 1.83599 12.1771 1.79086 12.3448C1.74572 12.5125 1.64005 12.6573 1.49446 12.7509C1.41827 12.7986 1.33346 12.8306 1.24491 12.8451C1.15636 12.8597 1.06583 12.8565 0.978504 12.8358C0.891182 12.8151 0.8088 12.7772 0.736098 12.7243C0.663395 12.6715 0.601804 12.6047 0.554872 12.5279V12.4833C0.514204 12.4028 0.48979 12.315 0.483035 12.225C0.47628 12.135 0.487322 12.0445 0.515519 11.9588C0.543716 11.8731 0.588513 11.7939 0.647328 11.7257C0.706143 11.6574 0.777811 11.6016 0.858204 11.5613H0.909991C1.06981 11.4986 1.24718 11.4981 1.40731 11.56C1.56745 11.6219 1.69879 11.7417 1.77559 11.8959L1.7386 11.8439ZM3.21825 14.1933C3.34567 14.3137 3.42271 14.4783 3.4337 14.6537C3.4447 14.8291 3.38882 15.0021 3.27744 15.1375C3.22189 15.2088 3.15283 15.2682 3.07427 15.3124C2.9957 15.3567 2.90918 15.3848 2.81972 15.3951C2.73027 15.4055 2.63965 15.3979 2.55313 15.3729C2.4666 15.3478 2.38589 15.3057 2.31566 15.2491L2.27127 15.2045C2.14342 15.0749 2.07167 14.8999 2.07167 14.7175C2.07167 14.535 2.14342 14.36 2.27127 14.2305C2.26867 14.2182 2.26867 14.2056 2.27127 14.1933C2.39908 14.0773 2.56516 14.0131 2.73737 14.0131C2.90957 14.0131 3.07565 14.0773 3.20345 14.1933H3.21825ZM5.84464 16.6989C5.78264 16.8698 5.65676 17.0097 5.49374 17.0889C5.33072 17.168 5.14342 17.1801 4.97164 17.1227H4.91985H4.88287C4.71912 17.0465 4.5917 16.9088 4.52805 16.7391C4.46439 16.5695 4.4696 16.3815 4.54255 16.2156C4.54497 16.1983 4.54497 16.1808 4.54255 16.1636C4.62587 16.0106 4.76417 15.8954 4.92918 15.8415C5.0942 15.7876 5.27346 15.7991 5.43034 15.8736C5.58933 15.9413 5.71638 16.0677 5.78523 16.2269C5.85408 16.386 5.85946 16.5656 5.80025 16.7286L5.84464 16.6989ZM0.739829 9.69517C0.644838 9.70127 0.549612 9.68772 0.460045 9.65534C0.370479 9.62296 0.288484 9.57245 0.21913 9.50694C0.149775 9.44142 0.0945381 9.36229 0.0568465 9.27446C0.019155 9.18662 -0.000192667 9.09194 1.44628e-06 8.99628C0.00196253 6.60964 0.946757 4.32142 2.62674 2.6345C4.30672 0.947584 6.58443 -8.1371e-07 8.95931 0C9.21085 0 9.46979 0 9.69914 0C9.79046 0.00829915 9.87927 0.0345934 9.96049 0.077383C10.0417 0.120173 10.1137 0.178622 10.1725 0.249388C10.2312 0.320153 10.2755 0.40185 10.3028 0.489818C10.3301 0.577787 10.34 0.670304 10.3317 0.762083C10.3234 0.853862 10.2973 0.943105 10.2547 1.02472C10.2121 1.10634 10.154 1.17873 10.0835 1.23776C10.0131 1.29679 9.93182 1.3413 9.84429 1.36875C9.75675 1.39621 9.66469 1.40607 9.57337 1.39777C9.36622 1.39777 9.15167 1.39777 8.93712 1.39777C6.94207 1.4115 5.03329 2.21709 3.62671 3.639C2.22013 5.06091 1.42977 6.98387 1.42787 8.98885C1.43394 9.08431 1.42046 9.18001 1.38824 9.27002C1.35602 9.36003 1.30576 9.44243 1.24057 9.51213C1.17538 9.58183 1.09664 9.63734 1.00923 9.67522C0.921828 9.7131 0.827619 9.73254 0.732435 9.73235L0.739829 9.69517ZM17.9556 8.99628C17.9615 11.3719 17.0307 13.6531 15.3668 15.3406C13.7029 17.028 11.4415 17.9843 9.07769 18C8.82614 18 8.5672 18 8.33786 18C8.15592 17.9848 7.98723 17.8983 7.8682 17.7592C7.74916 17.6201 7.68933 17.4396 7.70161 17.2565C7.72673 17.0779 7.81564 16.9145 7.95176 16.7969C8.08787 16.6792 8.26191 16.6153 8.44143 16.6171C8.64859 16.6171 8.86314 16.6171 9.07769 16.6171C10.0677 16.6142 11.0475 16.4153 11.961 16.0319C12.8745 15.6484 13.704 15.0879 14.402 14.3823C15.0999 13.6767 15.6528 12.8399 16.029 11.9196C16.4051 10.9993 16.5972 10.0135 16.5943 9.01859C16.643 8.86984 16.7371 8.74032 16.8633 8.6485C16.9895 8.55668 17.1414 8.50725 17.2972 8.50725C17.453 8.50725 17.6048 8.55668 17.731 8.6485C17.8572 8.74032 17.9513 8.86984 18 9.01859L17.9556 8.99628Z" fill="#FDB62A"/>
</svg>
