<svg width="19" height="14" viewBox="0 0 19 14" fill="none" xmlns="http://www.w3.org/2000/svg">
<path d="M7.36972 13.7648C6.9 13.7621 6.4505 13.5733 6.11972 13.2398L1.45305 8.54817C1.05613 8.14986 0.833252 7.61047 0.833252 7.04816C0.833252 6.48585 1.05613 5.94647 1.45305 5.54817L6.13639 0.848167C6.46884 0.518408 6.91813 0.333374 7.38639 0.333374C7.85465 0.333374 8.30393 0.518408 8.63639 0.848167C8.80088 1.01028 8.93132 1.20362 9.02005 1.41684C9.10878 1.63007 9.15399 1.85888 9.15305 2.08983V6.33983H18.2031C18.3909 6.33983 18.5711 6.41446 18.7039 6.5473C18.8368 6.68014 18.9114 6.8603 18.9114 7.04816C18.9114 7.23602 18.8368 7.41619 18.7039 7.54903C18.5711 7.68187 18.3909 7.75649 18.2031 7.75649H9.15305C8.77733 7.75649 8.41699 7.60724 8.15132 7.34156C7.88564 7.07589 7.73639 6.71555 7.73639 6.33983V2.09817C7.73719 2.02736 7.71596 1.95805 7.67566 1.89982C7.63535 1.8416 7.57794 1.79734 7.51138 1.77316C7.44601 1.74545 7.37389 1.73779 7.30415 1.75114C7.23442 1.7645 7.17023 1.79827 7.11972 1.84816L2.43638 6.54816C2.30408 6.68093 2.22979 6.86073 2.22979 7.04816C2.22979 7.2356 2.30408 7.41539 2.43638 7.54816L7.11972 12.2398C7.17092 12.2914 7.2366 12.3262 7.30804 12.3396C7.37948 12.353 7.45331 12.3444 7.51972 12.3148C7.58543 12.2903 7.64174 12.2457 7.68064 12.1874C7.71954 12.129 7.73905 12.0599 7.73639 11.9898V10.5065C7.73639 10.3186 7.81101 10.1385 7.94385 10.0056C8.07669 9.87279 8.25686 9.79817 8.44472 9.79817C8.63258 9.79817 8.81275 9.87279 8.94559 10.0056C9.07843 10.1385 9.15305 10.3186 9.15305 10.5065V12.0232C9.1487 12.4926 8.9603 12.9415 8.62836 13.2735C8.29642 13.6054 7.84747 13.7938 7.37805 13.7982L7.36972 13.7648Z" fill="#F15E33"/>
</svg>
