<svg width="16" height="16" viewBox="0 0 16 16" fill="none" xmlns="http://www.w3.org/2000/svg">
<path d="M7.34256 7.05969V2.19233C7.34081 1.94057 7.23929 1.69971 7.06014 1.5223C6.88099 1.3449 6.63876 1.24534 6.38629 1.24535C6.25721 1.24707 6.12975 1.27414 6.01116 1.325C5.89258 1.37585 5.78521 1.44951 5.69517 1.54175C5.60514 1.63399 5.53421 1.74302 5.48643 1.8626C5.43865 1.98218 5.41497 2.10998 5.41672 2.23869C5.41323 2.55779 5.28365 2.86265 5.05612 3.08706C4.82859 3.31148 4.52147 3.43733 4.20145 3.43731H4.08191C3.86163 3.44186 3.65187 3.53218 3.49752 3.68896C3.42462 3.75786 3.36691 3.84113 3.32803 3.93347C3.28916 4.02582 3.26999 4.12523 3.27173 4.22537C3.2719 4.33479 3.29571 4.44289 3.34155 4.54231C3.38739 4.64173 3.45418 4.73013 3.53736 4.8015C3.6532 4.91614 3.72265 5.06932 3.73245 5.23178C3.74225 5.39423 3.69172 5.5546 3.59049 5.68226C3.49312 5.79379 3.35876 5.86666 3.21196 5.88756L2.59437 5.98027C2.18946 6.04403 1.8236 6.25785 1.56997 6.57899C1.31633 6.90013 1.19361 7.3049 1.22633 7.71238C1.25905 8.11985 1.44481 8.49999 1.74647 8.77678C2.04812 9.05357 2.44343 9.20662 2.85336 9.20531C3.00866 9.22126 3.15252 9.29407 3.25711 9.40967C3.3617 9.52526 3.4196 9.67542 3.4196 9.83111C3.4196 9.9868 3.3617 10.137 3.25711 10.2526C3.15252 10.3681 3.00866 10.441 2.85336 10.4569C2.62927 10.4558 2.40619 10.4269 2.18927 10.3708C1.92391 10.6681 1.77737 11.0523 1.77754 11.4503C1.77754 11.8015 1.91747 12.1384 2.16655 12.3868C2.41563 12.6352 2.75346 12.7747 3.10571 12.7747H3.15884C3.52165 12.776 3.87586 12.885 4.17628 13.0879C4.4767 13.2908 4.70972 13.5783 4.84561 13.9137C4.9109 14.0809 5.00956 14.2331 5.13562 14.3611C5.26167 14.4891 5.41249 14.5902 5.57891 14.6583C5.74534 14.7265 5.92392 14.7602 6.1038 14.7574C6.28368 14.7546 6.46112 14.7154 6.62536 14.6422C6.77595 14.5728 6.948 14.5659 7.10368 14.6231C7.18076 14.6513 7.2515 14.6945 7.31186 14.75C7.37222 14.8056 7.42102 14.8725 7.45546 14.9468C7.48991 15.0212 7.50933 15.1016 7.51262 15.1834C7.51591 15.2652 7.50301 15.3469 7.47464 15.4238C7.44627 15.5007 7.403 15.5712 7.3473 15.6314C7.29159 15.6916 7.22454 15.7402 7.14998 15.7746C6.81015 15.9281 6.44056 16.005 6.06752 15.9997C5.55297 15.9985 5.05052 15.844 4.62458 15.5561C4.19864 15.2682 3.86862 14.8601 3.67682 14.3839C3.63535 14.2769 3.56245 14.1849 3.46765 14.1199C3.37286 14.0549 3.26059 14.02 3.14555 14.0197H3.09907C2.4157 14.0197 1.76032 13.749 1.27711 13.2671C0.79389 12.7853 0.522421 12.1317 0.522421 11.4503C0.516614 10.8589 0.700427 10.2812 1.04705 9.80131C0.458478 9.31561 0.0868129 8.61718 0.0133833 7.85888C-0.0600464 7.10058 0.170736 6.34414 0.655235 5.75511C1.03784 5.29637 1.55244 4.96582 2.1295 4.80812C2.0238 4.46309 2.01432 4.09586 2.10207 3.74586C2.18981 3.39585 2.37148 3.07629 2.62757 2.82144C3.01923 2.42682 3.55171 2.20299 4.10848 2.19895H4.18153C4.18585 1.9053 4.24825 1.6154 4.36515 1.34584C4.48205 1.07629 4.65115 0.832399 4.86276 0.628147C5.07437 0.423896 5.32433 0.263307 5.5983 0.155577C5.87228 0.0478482 6.16488 -0.0049023 6.45934 0.000358033C7.03587 0.0127632 7.58442 0.250597 7.98673 0.662584C8.1972 0.457531 8.44615 0.29588 8.71935 0.186882C8.99254 0.0778838 9.28461 0.0236775 9.57883 0.0273681C9.87306 0.0310587 10.1637 0.0925739 10.434 0.20839C10.7044 0.324206 10.9492 0.492053 11.1544 0.702321C11.5664 1.10432 11.8046 1.65083 11.8185 2.22544H11.8982C12.4497 2.22978 12.9771 2.45112 13.3658 2.84131C13.5565 3.02765 13.7076 3.25029 13.8103 3.49601C13.9129 3.74173 13.965 4.00553 13.9635 4.27172C13.9623 4.46739 13.931 4.6617 13.8705 4.84786C14.3381 4.97871 14.7653 5.22422 15.1133 5.56198C15.4613 5.89975 15.719 6.31902 15.8628 6.78156C15.8983 6.93625 15.8738 7.09859 15.7944 7.23608C15.7149 7.37356 15.5863 7.47602 15.4343 7.52292C15.2822 7.56982 15.1181 7.55771 14.9746 7.489C14.8312 7.42028 14.7191 7.30006 14.6608 7.1524C14.5714 6.85723 14.3986 6.59402 14.1631 6.39434C13.9275 6.19466 13.6391 6.06698 13.3326 6.02662L12.715 5.92729C12.6339 5.91515 12.556 5.88719 12.4857 5.845C12.4154 5.80282 12.3541 5.74723 12.3054 5.68142C12.2567 5.61562 12.2215 5.54088 12.2017 5.46148C12.182 5.38209 12.1781 5.29959 12.1904 5.21871C12.215 5.07356 12.2875 4.94074 12.3962 4.84124C12.4788 4.76932 12.5451 4.6808 12.5909 4.58151C12.6367 4.48221 12.6609 4.37438 12.6619 4.2651C12.6622 4.16418 12.6424 4.0642 12.6036 3.97098C12.5649 3.87776 12.5079 3.79315 12.4361 3.72207C12.2824 3.56995 12.0749 3.4843 11.8583 3.48367H11.772C11.4514 3.48195 11.1443 3.35462 10.9169 3.12915C10.6896 2.90368 10.5602 2.59814 10.5567 2.27842C10.5639 2.14588 10.5441 2.01326 10.4983 1.88861C10.4526 1.76396 10.3819 1.64988 10.2906 1.55327C10.1993 1.45667 10.0893 1.37957 9.96727 1.32663C9.84521 1.2737 9.71363 1.24605 9.58053 1.24535C9.45439 1.24183 9.3288 1.26323 9.211 1.30833C9.0932 1.35344 8.98551 1.42135 8.89415 1.50815C8.80278 1.59494 8.72955 1.69892 8.67867 1.81407C8.62779 1.92922 8.60026 2.05327 8.59768 2.17908V7.05969C8.59786 7.14489 8.58049 7.22922 8.54666 7.30746C8.51283 7.38569 8.46325 7.45617 8.40099 7.51453C8.33874 7.57288 8.26514 7.61787 8.18474 7.64671C8.10435 7.67555 8.01886 7.68763 7.9336 7.68219C7.76804 7.68219 7.60926 7.6166 7.4922 7.49986C7.37513 7.38312 7.30936 7.22479 7.30936 7.05969H7.34256ZM15.4909 11.8211C15.4097 11.8058 15.3263 11.8068 15.2456 11.8238C15.1648 11.8409 15.0882 11.8738 15.0203 11.9206C14.9523 11.9675 14.8944 12.0272 14.8497 12.0966C14.8051 12.1659 14.7748 12.2433 14.7604 12.3244C14.6519 12.901 14.3744 13.4326 13.9629 13.852C13.5515 14.2713 13.0246 14.5596 12.4489 14.6804C11.8732 14.8012 11.2745 14.7491 10.7284 14.5306C10.1824 14.3121 9.71362 13.9371 9.3813 13.453C9.04898 12.9689 8.86807 12.3974 8.86142 11.8107C8.85478 11.2241 9.0227 10.6486 9.34397 10.1572C9.66524 9.66567 10.1254 9.2802 10.6664 9.04948C11.2073 8.81876 11.8047 8.75315 12.383 8.86095L12.6353 8.92055C12.7956 8.96446 12.9668 8.94308 13.1113 8.86111C13.2557 8.77915 13.3616 8.64331 13.4057 8.48348C13.4497 8.32366 13.4282 8.15293 13.346 8.00887C13.2639 7.86481 13.1276 7.7592 12.9674 7.7153C12.1611 7.48984 11.3059 7.50807 10.5101 7.76766C9.71421 8.02726 9.01353 8.51654 8.49674 9.17354C7.97996 9.83054 7.67032 10.6257 7.60706 11.4583C7.54381 12.2909 7.72976 13.1235 8.14138 13.8507C8.55301 14.5778 9.17178 15.1668 9.91932 15.543C10.6669 15.9192 11.5096 16.0657 12.3407 15.964C13.1718 15.8622 13.9539 15.5168 14.588 14.9714C15.2221 14.4261 15.6796 13.7054 15.9026 12.9005C15.9408 12.7815 15.9697 12.6598 15.9889 12.5363C16.0043 12.4558 16.0037 12.3732 15.9869 12.293C15.9702 12.2128 15.9378 12.1367 15.8915 12.069C15.8453 12.0013 15.786 11.9434 15.7173 11.8986C15.6485 11.8538 15.5716 11.823 15.4909 11.8079V11.8211ZM14.4615 9.27153L11.8384 11.8675L11.0216 11.0595C10.9636 11.0017 10.8948 10.9558 10.819 10.9245C10.7432 10.8932 10.662 10.8771 10.58 10.8771C10.498 10.8771 10.4167 10.8932 10.341 10.9245C10.2652 10.9558 10.1964 11.0017 10.1384 11.0595C10.0804 11.1174 10.0344 11.186 10.003 11.2616C9.97159 11.3372 9.95544 11.4181 9.95544 11.4999C9.95544 11.5817 9.97159 11.6627 10.003 11.7383C10.0344 11.8138 10.0804 11.8825 10.1384 11.9403L11.0614 12.8608C11.2668 13.065 11.545 13.1797 11.8351 13.1797C12.1251 13.1797 12.4034 13.065 12.6088 12.8608L15.3448 10.1523C15.4032 10.0949 15.4497 10.0266 15.4817 9.95125C15.5136 9.87593 15.5304 9.79507 15.531 9.71328C15.5316 9.6315 15.5161 9.55039 15.4853 9.47459C15.4545 9.3988 15.409 9.32979 15.3514 9.27153C15.2939 9.21326 15.2254 9.16687 15.1498 9.13501C15.0743 9.10314 14.9932 9.08642 14.9112 9.08581C14.8292 9.08519 14.7478 9.10069 14.6718 9.13142C14.5958 9.16215 14.5266 9.20751 14.4682 9.26491L14.4615 9.27153Z" fill="#4A9016"/>
</svg>
