<svg width="24" height="25" viewBox="0 0 24 25" fill="none" xmlns="http://www.w3.org/2000/svg">
<path d="M11.2 15.6L19.0672 10.6L11.2 5.59999V15.6ZM6.46715 20.3328C5.86662 20.3328 5.36102 20.1275 4.95035 19.7168C4.53862 19.3051 4.33275 18.7995 4.33275 18.2V2.99999C4.33275 2.40052 4.53862 1.89492 4.95035 1.48319C5.36102 1.07252 5.86662 0.867188 6.46715 0.867188H21.6672C22.2666 0.867188 22.7722 1.07252 23.184 1.48319C23.5946 1.89492 23.8 2.40052 23.8 2.99999V18.2C23.8 18.7995 23.5946 19.3051 23.184 19.7168C22.7722 20.1275 22.2666 20.3328 21.6672 20.3328H6.46715ZM6.46715 18.6H21.6672C21.7557 18.6 21.8442 18.5557 21.9328 18.4672C22.0224 18.3776 22.0672 18.2885 22.0672 18.2V2.99999C22.0672 2.91145 22.0224 2.82239 21.9328 2.73279C21.8442 2.64425 21.7557 2.59999 21.6672 2.59999H6.46715C6.37755 2.59999 6.28848 2.64425 6.19995 2.73279C6.11142 2.82239 6.06715 2.91145 6.06715 2.99999V18.2C6.06715 18.2885 6.11142 18.3776 6.19995 18.4672C6.28848 18.5557 6.37755 18.6 6.46715 18.6ZM2.33275 24.4672C1.73328 24.4672 1.22768 24.2613 0.815951 23.8496C0.405285 23.4389 0.199951 22.9333 0.199951 22.3328V5.39999H1.93275V22.3328C1.93275 22.4224 1.97755 22.5115 2.06715 22.6C2.15568 22.6885 2.24422 22.7328 2.33275 22.7328H19.2672V24.4672H2.33275Z" fill="#279FDB"/>
</svg>
